G04 #@! TF.GenerationSoftware,KiCad,Pcbnew,7.0.6*
G04 #@! TF.CreationDate,2024-04-20T21:55:13+01:00*
G04 #@! TF.ProjectId,BreadboardIndicator,42726561-6462-46f6-9172-64496e646963,rev?*
G04 #@! TF.SameCoordinates,Original*
G04 #@! TF.FileFunction,Copper,L1,Top*
G04 #@! TF.FilePolarity,Positive*
%FSLAX46Y46*%
G04 Gerber Fmt 4.6, Leading zero omitted, Abs format (unit mm)*
G04 Created by KiCad (PCBNEW 7.0.6) date 2024-04-20 21:55:13*
%MOMM*%
%LPD*%
G01*
G04 APERTURE LIST*
G04 Aperture macros list*
%AMRoundRect*
0 Rectangle with rounded corners*
0 $1 Rounding radius*
0 $2 $3 $4 $5 $6 $7 $8 $9 X,Y pos of 4 corners*
0 Add a 4 corners polygon primitive as box body*
4,1,4,$2,$3,$4,$5,$6,$7,$8,$9,$2,$3,0*
0 Add four circle primitives for the rounded corners*
1,1,$1+$1,$2,$3*
1,1,$1+$1,$4,$5*
1,1,$1+$1,$6,$7*
1,1,$1+$1,$8,$9*
0 Add four rect primitives between the rounded corners*
20,1,$1+$1,$2,$3,$4,$5,0*
20,1,$1+$1,$4,$5,$6,$7,0*
20,1,$1+$1,$6,$7,$8,$9,0*
20,1,$1+$1,$8,$9,$2,$3,0*%
G04 Aperture macros list end*
G04 #@! TA.AperFunction,SMDPad,CuDef*
%ADD10RoundRect,0.243750X0.243750X0.456250X-0.243750X0.456250X-0.243750X-0.456250X0.243750X-0.456250X0*%
G04 #@! TD*
G04 #@! TA.AperFunction,ComponentPad*
%ADD11R,1.700000X1.700000*%
G04 #@! TD*
G04 #@! TA.AperFunction,ComponentPad*
%ADD12O,1.700000X1.700000*%
G04 #@! TD*
G04 #@! TA.AperFunction,ViaPad*
%ADD13C,0.500000*%
G04 #@! TD*
G04 #@! TA.AperFunction,Conductor*
%ADD14C,1.700000*%
G04 #@! TD*
G04 APERTURE END LIST*
D10*
X105000000Y-143660000D03*
X103125000Y-143660000D03*
X105000000Y-141120000D03*
X103125000Y-141120000D03*
X105000000Y-138580000D03*
X103125000Y-138580000D03*
X105000000Y-136040000D03*
X103125000Y-136040000D03*
X105000000Y-133500000D03*
X103125000Y-133500000D03*
X105000000Y-130960000D03*
X103125000Y-130960000D03*
X105000000Y-128420000D03*
X103125000Y-128420000D03*
X105000000Y-125880000D03*
X103125000Y-125880000D03*
X105000000Y-123340000D03*
X103125000Y-123340000D03*
X105000000Y-120800000D03*
X103125000Y-120800000D03*
X105000000Y-118260000D03*
X103125000Y-118260000D03*
X105000000Y-115720000D03*
X103125000Y-115720000D03*
X105000000Y-113180000D03*
X103125000Y-113180000D03*
X105000000Y-110640000D03*
X103125000Y-110640000D03*
X105000000Y-108100000D03*
X103125000Y-108100000D03*
X105000000Y-105560000D03*
X103125000Y-105560000D03*
X105000000Y-103020000D03*
X103125000Y-103020000D03*
X105000000Y-100480000D03*
X103125000Y-100480000D03*
X105000000Y-97940000D03*
X103125000Y-97940000D03*
X105000000Y-95400000D03*
X103125000Y-95400000D03*
X105000000Y-92860000D03*
X103125000Y-92860000D03*
X105000000Y-90320000D03*
X103125000Y-90320000D03*
X105000000Y-87780000D03*
X103125000Y-87780000D03*
X105000000Y-85240000D03*
X103125000Y-85240000D03*
X105000000Y-82700000D03*
X103125000Y-82700000D03*
X105000000Y-80160000D03*
X103125000Y-80160000D03*
X105000000Y-77620000D03*
X103125000Y-77620000D03*
X105000000Y-75080000D03*
X103125000Y-75080000D03*
X103125000Y-72540000D03*
X105000000Y-72540000D03*
X103125000Y-70000000D03*
X105000000Y-70000000D03*
D11*
X110160000Y-70000000D03*
D12*
X110160000Y-72540000D03*
X110160000Y-75080000D03*
X110160000Y-77620000D03*
X110160000Y-80160000D03*
X110160000Y-82700000D03*
X110160000Y-85240000D03*
X110160000Y-87780000D03*
X110160000Y-90320000D03*
X110160000Y-92860000D03*
X110160000Y-95400000D03*
X110160000Y-97940000D03*
X110160000Y-100480000D03*
X110160000Y-103020000D03*
X110160000Y-105560000D03*
X110160000Y-108100000D03*
X110160000Y-110640000D03*
X110160000Y-113180000D03*
X110160000Y-115720000D03*
X110160000Y-118260000D03*
X110160000Y-120800000D03*
X110160000Y-123340000D03*
X110160000Y-125880000D03*
X110160000Y-128420000D03*
X110160000Y-130960000D03*
X110160000Y-133500000D03*
X110160000Y-136040000D03*
X110160000Y-138580000D03*
X110160000Y-141120000D03*
X110160000Y-143660000D03*
D11*
X100000000Y-70000000D03*
D12*
X100000000Y-72540000D03*
X100000000Y-75080000D03*
X100000000Y-77620000D03*
X100000000Y-80160000D03*
X100000000Y-82700000D03*
X100000000Y-85240000D03*
X100000000Y-87780000D03*
X100000000Y-90320000D03*
X100000000Y-92860000D03*
X100000000Y-95400000D03*
X100000000Y-97940000D03*
X100000000Y-100480000D03*
X100000000Y-103020000D03*
X100000000Y-105560000D03*
X100000000Y-108100000D03*
X100000000Y-110640000D03*
X100000000Y-113180000D03*
X100000000Y-115720000D03*
X100000000Y-118260000D03*
X100000000Y-120800000D03*
X100000000Y-123340000D03*
X100000000Y-125880000D03*
X100000000Y-128420000D03*
X100000000Y-130960000D03*
X100000000Y-133500000D03*
X100000000Y-136040000D03*
X100000000Y-138580000D03*
X100000000Y-141120000D03*
X100000000Y-143660000D03*
D13*
X98708000Y-71280000D03*
X98708000Y-73820000D03*
X98708000Y-76360000D03*
X98708000Y-78900000D03*
X98708000Y-81440000D03*
X98708000Y-83980000D03*
X98708000Y-86520000D03*
X98708000Y-89060000D03*
X98708000Y-144940000D03*
X98708000Y-142400000D03*
X98708000Y-139860000D03*
X98708000Y-137320000D03*
X98708000Y-134780000D03*
X98708000Y-132240000D03*
X98708000Y-129700000D03*
X98708000Y-127160000D03*
X98708000Y-124620000D03*
X98708000Y-122080000D03*
X98708000Y-119540000D03*
X98708000Y-117000000D03*
X98708000Y-114460000D03*
X98708000Y-111920000D03*
X98708000Y-109380000D03*
X98708000Y-106840000D03*
X98708000Y-104300000D03*
X98708000Y-101760000D03*
X98708000Y-99220000D03*
X98708000Y-96680000D03*
X98708000Y-91600000D03*
X98708000Y-94140000D03*
X107950000Y-144940000D03*
X107950000Y-142400000D03*
X107950000Y-139860000D03*
X107950000Y-137320000D03*
X107950000Y-134780000D03*
X107950000Y-132240000D03*
X107950000Y-129700000D03*
X107950000Y-127160000D03*
X107950000Y-124620000D03*
X107950000Y-122080000D03*
X107950000Y-119540000D03*
X107950000Y-117000000D03*
X107950000Y-114460000D03*
X107950000Y-111920000D03*
X107950000Y-109380000D03*
X107950000Y-106840000D03*
X107950000Y-104300000D03*
X107950000Y-101760000D03*
X107950000Y-99220000D03*
X107950000Y-96680000D03*
X107950000Y-94140000D03*
X107950000Y-91600000D03*
X107950000Y-89060000D03*
X107950000Y-86520000D03*
X107950000Y-83980000D03*
X107950000Y-81440000D03*
X107950000Y-78900000D03*
X107950000Y-76360000D03*
X107950000Y-73820000D03*
X107950000Y-71280000D03*
X111000000Y-68000000D03*
X110000000Y-68000000D03*
X109000000Y-68000000D03*
X108000000Y-68000000D03*
X107000000Y-68000000D03*
X106000000Y-68000000D03*
X105000000Y-68000000D03*
X104000000Y-68000000D03*
X103000000Y-68000000D03*
X102000000Y-68000000D03*
X101000000Y-68000000D03*
X100000000Y-68000000D03*
X99000000Y-68000000D03*
X111000000Y-146000000D03*
X110000000Y-146000000D03*
X109000000Y-146000000D03*
X108000000Y-146000000D03*
X107000000Y-146000000D03*
X106000000Y-146000000D03*
X105000000Y-146000000D03*
X104000000Y-146000000D03*
X103000000Y-146000000D03*
X102000000Y-146000000D03*
X101000000Y-146000000D03*
X100000000Y-146000000D03*
X99000000Y-146000000D03*
X105000000Y-143660000D03*
X105000000Y-141120000D03*
X105000000Y-138580000D03*
X105000000Y-136040000D03*
X105000000Y-133500000D03*
X105000000Y-130960000D03*
X105000000Y-128420000D03*
X105000000Y-125880000D03*
X105000000Y-123340000D03*
X105000000Y-120800000D03*
X105000000Y-118260000D03*
X105000000Y-115720000D03*
X105000000Y-113180000D03*
X105000000Y-110640000D03*
X105000000Y-108100000D03*
X105000000Y-105560000D03*
X105000000Y-103020000D03*
X105000000Y-100480000D03*
X105000000Y-97940000D03*
X105000000Y-95400000D03*
X105000000Y-92860000D03*
X105000000Y-90320000D03*
X105000000Y-87780000D03*
X105000000Y-85240000D03*
X105000000Y-82700000D03*
X105000000Y-80160000D03*
X105000000Y-77620000D03*
X105000000Y-75080000D03*
X105000000Y-72540000D03*
X105000000Y-70000000D03*
D14*
X100000000Y-143660000D02*
X103125000Y-143660000D01*
X103125000Y-141120000D02*
X100000000Y-141120000D01*
X100000000Y-138580000D02*
X103125000Y-138580000D01*
X103125000Y-136040000D02*
X100000000Y-136040000D01*
X100000000Y-133500000D02*
X103125000Y-133500000D01*
X100000000Y-130960000D02*
X103125000Y-130960000D01*
X100000000Y-128420000D02*
X103125000Y-128420000D01*
X103125000Y-125880000D02*
X100000000Y-125880000D01*
X100000000Y-123340000D02*
X103125000Y-123340000D01*
X103125000Y-120800000D02*
X100000000Y-120800000D01*
X100000000Y-118260000D02*
X103125000Y-118260000D01*
X103125000Y-115720000D02*
X100000000Y-115720000D01*
X100000000Y-113180000D02*
X103125000Y-113180000D01*
X100000000Y-110640000D02*
X103125000Y-110640000D01*
X100000000Y-108100000D02*
X103125000Y-108100000D01*
X103125000Y-105560000D02*
X100000000Y-105560000D01*
X100000000Y-103020000D02*
X103125000Y-103020000D01*
X103125000Y-100480000D02*
X100000000Y-100480000D01*
X100000000Y-97940000D02*
X103125000Y-97940000D01*
X103125000Y-95400000D02*
X100000000Y-95400000D01*
X100000000Y-92860000D02*
X103125000Y-92860000D01*
X100000000Y-90320000D02*
X103125000Y-90320000D01*
X100000000Y-87780000D02*
X103125000Y-87780000D01*
X103125000Y-85240000D02*
X100000000Y-85240000D01*
X100000000Y-82700000D02*
X103125000Y-82700000D01*
X100000000Y-80160000D02*
X103125000Y-80160000D01*
X100000000Y-77620000D02*
X103125000Y-77620000D01*
X100000000Y-75080000D02*
X103125000Y-75080000D01*
X100000000Y-72540000D02*
X103125000Y-72540000D01*
X100000000Y-70000000D02*
X103125000Y-70000000D01*
G04 #@! TA.AperFunction,Conductor*
G36*
X111503034Y-66250799D02*
G01*
X111507647Y-66251253D01*
X111535271Y-66253973D01*
X111643209Y-66266135D01*
X111665317Y-66270694D01*
X111717732Y-66286594D01*
X111795211Y-66313705D01*
X111812696Y-66321383D01*
X111865141Y-66349415D01*
X111868892Y-66351593D01*
X111937151Y-66394483D01*
X111943503Y-66399057D01*
X111994371Y-66440802D01*
X111998872Y-66444881D01*
X112055116Y-66501125D01*
X112059196Y-66505627D01*
X112100941Y-66556495D01*
X112105515Y-66562847D01*
X112148405Y-66631106D01*
X112150588Y-66634866D01*
X112178614Y-66687299D01*
X112186297Y-66704797D01*
X112206464Y-66762428D01*
X112213405Y-66782266D01*
X112213406Y-66782267D01*
X112229304Y-66834682D01*
X112233863Y-66856791D01*
X112246028Y-66964748D01*
X112249201Y-66996967D01*
X112249500Y-67003049D01*
X112249500Y-146246950D01*
X112249201Y-146253032D01*
X112246028Y-146285251D01*
X112233863Y-146393207D01*
X112229305Y-146415315D01*
X112213406Y-146467732D01*
X112186297Y-146545201D01*
X112178614Y-146562699D01*
X112150588Y-146615132D01*
X112148405Y-146618892D01*
X112105515Y-146687151D01*
X112100941Y-146693503D01*
X112059196Y-146744371D01*
X112055107Y-146748883D01*
X111998883Y-146805107D01*
X111994371Y-146809196D01*
X111943503Y-146850941D01*
X111937151Y-146855515D01*
X111868892Y-146898405D01*
X111865132Y-146900588D01*
X111812699Y-146928614D01*
X111795201Y-146936297D01*
X111717732Y-146963406D01*
X111665315Y-146979305D01*
X111643207Y-146983863D01*
X111535252Y-146996028D01*
X111503033Y-146999201D01*
X111496951Y-146999500D01*
X98753049Y-146999500D01*
X98746967Y-146999201D01*
X98714748Y-146996028D01*
X98606791Y-146983863D01*
X98584682Y-146979304D01*
X98532273Y-146963407D01*
X98512428Y-146956464D01*
X98454797Y-146936297D01*
X98437299Y-146928614D01*
X98384866Y-146900588D01*
X98381106Y-146898405D01*
X98312847Y-146855515D01*
X98306495Y-146850941D01*
X98255627Y-146809196D01*
X98251125Y-146805116D01*
X98194881Y-146748872D01*
X98190802Y-146744371D01*
X98177708Y-146728416D01*
X98149057Y-146693503D01*
X98144483Y-146687151D01*
X98101593Y-146618892D01*
X98099410Y-146615132D01*
X98071384Y-146562699D01*
X98063705Y-146545211D01*
X98036594Y-146467732D01*
X98020694Y-146415317D01*
X98016135Y-146393206D01*
X98003972Y-146285251D01*
X98000799Y-146253032D01*
X98000500Y-146246955D01*
X98000500Y-143660000D01*
X98644341Y-143660000D01*
X98664936Y-143895403D01*
X98664938Y-143895413D01*
X98726094Y-144123655D01*
X98726096Y-144123659D01*
X98726097Y-144123663D01*
X98745772Y-144165855D01*
X98825965Y-144337830D01*
X98825967Y-144337834D01*
X98892549Y-144432922D01*
X98961505Y-144531401D01*
X99128599Y-144698495D01*
X99225384Y-144766265D01*
X99322165Y-144834032D01*
X99322167Y-144834033D01*
X99322170Y-144834035D01*
X99536337Y-144933903D01*
X99764592Y-144995063D01*
X99941034Y-145010500D01*
X99999999Y-145015659D01*
X100000000Y-145015659D01*
X100000001Y-145015659D01*
X100021786Y-145013752D01*
X100056270Y-145010735D01*
X100061673Y-145010500D01*
X103183966Y-145010500D01*
X103360408Y-144995063D01*
X103588663Y-144933903D01*
X103802829Y-144834035D01*
X103996401Y-144698495D01*
X104053504Y-144641391D01*
X104114824Y-144607908D01*
X104184516Y-144612892D01*
X104228864Y-144641393D01*
X104291496Y-144704025D01*
X104291500Y-144704028D01*
X104439566Y-144795357D01*
X104439569Y-144795358D01*
X104439575Y-144795362D01*
X104604725Y-144850087D01*
X104706652Y-144860500D01*
X104706657Y-144860500D01*
X105293343Y-144860500D01*
X105293348Y-144860500D01*
X105395275Y-144850087D01*
X105560425Y-144795362D01*
X105708503Y-144704026D01*
X105831526Y-144581003D01*
X105922862Y-144432925D01*
X105977587Y-144267775D01*
X105988000Y-144165848D01*
X105988000Y-143154152D01*
X105977587Y-143052225D01*
X105922862Y-142887075D01*
X105922858Y-142887069D01*
X105922857Y-142887066D01*
X105831528Y-142739000D01*
X105831525Y-142738996D01*
X105708503Y-142615974D01*
X105708499Y-142615971D01*
X105560433Y-142524642D01*
X105560427Y-142524639D01*
X105560425Y-142524638D01*
X105509324Y-142507705D01*
X105451881Y-142467934D01*
X105425058Y-142403418D01*
X105437373Y-142334642D01*
X105484916Y-142283442D01*
X105509322Y-142272295D01*
X105560425Y-142255362D01*
X105708503Y-142164026D01*
X105831526Y-142041003D01*
X105922862Y-141892925D01*
X105977587Y-141727775D01*
X105988000Y-141625848D01*
X105988000Y-140614152D01*
X105977587Y-140512225D01*
X105922862Y-140347075D01*
X105922858Y-140347069D01*
X105922857Y-140347066D01*
X105831528Y-140199000D01*
X105831525Y-140198996D01*
X105708503Y-140075974D01*
X105708499Y-140075971D01*
X105560433Y-139984642D01*
X105560427Y-139984639D01*
X105560425Y-139984638D01*
X105509324Y-139967705D01*
X105451881Y-139927934D01*
X105425058Y-139863418D01*
X105437373Y-139794642D01*
X105484916Y-139743442D01*
X105509322Y-139732295D01*
X105560425Y-139715362D01*
X105708503Y-139624026D01*
X105831526Y-139501003D01*
X105922862Y-139352925D01*
X105977587Y-139187775D01*
X105988000Y-139085848D01*
X105988000Y-138074152D01*
X105977587Y-137972225D01*
X105922862Y-137807075D01*
X105922858Y-137807069D01*
X105922857Y-137807066D01*
X105831528Y-137659000D01*
X105831525Y-137658996D01*
X105708503Y-137535974D01*
X105708499Y-137535971D01*
X105560433Y-137444642D01*
X105560427Y-137444639D01*
X105560425Y-137444638D01*
X105509324Y-137427705D01*
X105451881Y-137387934D01*
X105425058Y-137323418D01*
X105437373Y-137254642D01*
X105484916Y-137203442D01*
X105509322Y-137192295D01*
X105560425Y-137175362D01*
X105708503Y-137084026D01*
X105831526Y-136961003D01*
X105922862Y-136812925D01*
X105977587Y-136647775D01*
X105988000Y-136545848D01*
X105988000Y-135534152D01*
X105977587Y-135432225D01*
X105922862Y-135267075D01*
X105922858Y-135267069D01*
X105922857Y-135267066D01*
X105831528Y-135119000D01*
X105831525Y-135118996D01*
X105708503Y-134995974D01*
X105708499Y-134995971D01*
X105560433Y-134904642D01*
X105560427Y-134904639D01*
X105560425Y-134904638D01*
X105509324Y-134887705D01*
X105451881Y-134847934D01*
X105425058Y-134783418D01*
X105437373Y-134714642D01*
X105484916Y-134663442D01*
X105509322Y-134652295D01*
X105560425Y-134635362D01*
X105708503Y-134544026D01*
X105831526Y-134421003D01*
X105922862Y-134272925D01*
X105977587Y-134107775D01*
X105988000Y-134005848D01*
X105988000Y-132994152D01*
X105977587Y-132892225D01*
X105922862Y-132727075D01*
X105922858Y-132727069D01*
X105922857Y-132727066D01*
X105831528Y-132579000D01*
X105831525Y-132578996D01*
X105708503Y-132455974D01*
X105708499Y-132455971D01*
X105560433Y-132364642D01*
X105560427Y-132364639D01*
X105560425Y-132364638D01*
X105509324Y-132347705D01*
X105451881Y-132307934D01*
X105425058Y-132243418D01*
X105437373Y-132174642D01*
X105484916Y-132123442D01*
X105509322Y-132112295D01*
X105560425Y-132095362D01*
X105708503Y-132004026D01*
X105831526Y-131881003D01*
X105922862Y-131732925D01*
X105977587Y-131567775D01*
X105988000Y-131465848D01*
X105988000Y-130454152D01*
X105977587Y-130352225D01*
X105922862Y-130187075D01*
X105922858Y-130187069D01*
X105922857Y-130187066D01*
X105831528Y-130039000D01*
X105831525Y-130038996D01*
X105708503Y-129915974D01*
X105708499Y-129915971D01*
X105560433Y-129824642D01*
X105560427Y-129824639D01*
X105560425Y-129824638D01*
X105509324Y-129807705D01*
X105451881Y-129767934D01*
X105425058Y-129703418D01*
X105437373Y-129634642D01*
X105484916Y-129583442D01*
X105509322Y-129572295D01*
X105560425Y-129555362D01*
X105708503Y-129464026D01*
X105831526Y-129341003D01*
X105922862Y-129192925D01*
X105977587Y-129027775D01*
X105988000Y-128925848D01*
X105988000Y-127914152D01*
X105977587Y-127812225D01*
X105922862Y-127647075D01*
X105922858Y-127647069D01*
X105922857Y-127647066D01*
X105831528Y-127499000D01*
X105831525Y-127498996D01*
X105708503Y-127375974D01*
X105708499Y-127375971D01*
X105560433Y-127284642D01*
X105560427Y-127284639D01*
X105560425Y-127284638D01*
X105509324Y-127267705D01*
X105451881Y-127227934D01*
X105425058Y-127163418D01*
X105437373Y-127094642D01*
X105484916Y-127043442D01*
X105509322Y-127032295D01*
X105560425Y-127015362D01*
X105708503Y-126924026D01*
X105831526Y-126801003D01*
X105922862Y-126652925D01*
X105977587Y-126487775D01*
X105988000Y-126385848D01*
X105988000Y-125374152D01*
X105977587Y-125272225D01*
X105922862Y-125107075D01*
X105922858Y-125107069D01*
X105922857Y-125107066D01*
X105831528Y-124959000D01*
X105831525Y-124958996D01*
X105708503Y-124835974D01*
X105708499Y-124835971D01*
X105560433Y-124744642D01*
X105560427Y-124744639D01*
X105560425Y-124744638D01*
X105509324Y-124727705D01*
X105451881Y-124687934D01*
X105425058Y-124623418D01*
X105437373Y-124554642D01*
X105484916Y-124503442D01*
X105509322Y-124492295D01*
X105560425Y-124475362D01*
X105708503Y-124384026D01*
X105831526Y-124261003D01*
X105922862Y-124112925D01*
X105977587Y-123947775D01*
X105988000Y-123845848D01*
X105988000Y-122834152D01*
X105977587Y-122732225D01*
X105922862Y-122567075D01*
X105922858Y-122567069D01*
X105922857Y-122567066D01*
X105831528Y-122419000D01*
X105831525Y-122418996D01*
X105708503Y-122295974D01*
X105708499Y-122295971D01*
X105560433Y-122204642D01*
X105560427Y-122204639D01*
X105560425Y-122204638D01*
X105509324Y-122187705D01*
X105451881Y-122147934D01*
X105425058Y-122083418D01*
X105437373Y-122014642D01*
X105484916Y-121963442D01*
X105509322Y-121952295D01*
X105560425Y-121935362D01*
X105708503Y-121844026D01*
X105831526Y-121721003D01*
X105922862Y-121572925D01*
X105977587Y-121407775D01*
X105988000Y-121305848D01*
X105988000Y-120294152D01*
X105977587Y-120192225D01*
X105922862Y-120027075D01*
X105922858Y-120027069D01*
X105922857Y-120027066D01*
X105831528Y-119879000D01*
X105831525Y-119878996D01*
X105708503Y-119755974D01*
X105708499Y-119755971D01*
X105560433Y-119664642D01*
X105560427Y-119664639D01*
X105560425Y-119664638D01*
X105509324Y-119647705D01*
X105451881Y-119607934D01*
X105425058Y-119543418D01*
X105437373Y-119474642D01*
X105484916Y-119423442D01*
X105509322Y-119412295D01*
X105560425Y-119395362D01*
X105708503Y-119304026D01*
X105831526Y-119181003D01*
X105922862Y-119032925D01*
X105977587Y-118867775D01*
X105988000Y-118765848D01*
X105988000Y-117754152D01*
X105977587Y-117652225D01*
X105922862Y-117487075D01*
X105922858Y-117487069D01*
X105922857Y-117487066D01*
X105831528Y-117339000D01*
X105831525Y-117338996D01*
X105708503Y-117215974D01*
X105708499Y-117215971D01*
X105560433Y-117124642D01*
X105560427Y-117124639D01*
X105560425Y-117124638D01*
X105509324Y-117107705D01*
X105451881Y-117067934D01*
X105425058Y-117003418D01*
X105437373Y-116934642D01*
X105484916Y-116883442D01*
X105509322Y-116872295D01*
X105560425Y-116855362D01*
X105708503Y-116764026D01*
X105831526Y-116641003D01*
X105922862Y-116492925D01*
X105977587Y-116327775D01*
X105988000Y-116225848D01*
X105988000Y-115214152D01*
X105977587Y-115112225D01*
X105922862Y-114947075D01*
X105922858Y-114947069D01*
X105922857Y-114947066D01*
X105831528Y-114799000D01*
X105831525Y-114798996D01*
X105708503Y-114675974D01*
X105708499Y-114675971D01*
X105560433Y-114584642D01*
X105560427Y-114584639D01*
X105560425Y-114584638D01*
X105509324Y-114567705D01*
X105451881Y-114527934D01*
X105425058Y-114463418D01*
X105437373Y-114394642D01*
X105484916Y-114343442D01*
X105509322Y-114332295D01*
X105560425Y-114315362D01*
X105708503Y-114224026D01*
X105831526Y-114101003D01*
X105922862Y-113952925D01*
X105977587Y-113787775D01*
X105988000Y-113685848D01*
X105988000Y-112674152D01*
X105977587Y-112572225D01*
X105922862Y-112407075D01*
X105922858Y-112407069D01*
X105922857Y-112407066D01*
X105831528Y-112259000D01*
X105831525Y-112258996D01*
X105708503Y-112135974D01*
X105708499Y-112135971D01*
X105560433Y-112044642D01*
X105560427Y-112044639D01*
X105560425Y-112044638D01*
X105509324Y-112027705D01*
X105451881Y-111987934D01*
X105425058Y-111923418D01*
X105437373Y-111854642D01*
X105484916Y-111803442D01*
X105509322Y-111792295D01*
X105560425Y-111775362D01*
X105708503Y-111684026D01*
X105831526Y-111561003D01*
X105922862Y-111412925D01*
X105977587Y-111247775D01*
X105988000Y-111145848D01*
X105988000Y-110134152D01*
X105977587Y-110032225D01*
X105922862Y-109867075D01*
X105922858Y-109867069D01*
X105922857Y-109867066D01*
X105831528Y-109719000D01*
X105831525Y-109718996D01*
X105708503Y-109595974D01*
X105708499Y-109595971D01*
X105560433Y-109504642D01*
X105560427Y-109504639D01*
X105560425Y-109504638D01*
X105509324Y-109487705D01*
X105451881Y-109447934D01*
X105425058Y-109383418D01*
X105437373Y-109314642D01*
X105484916Y-109263442D01*
X105509322Y-109252295D01*
X105560425Y-109235362D01*
X105708503Y-109144026D01*
X105831526Y-109021003D01*
X105922862Y-108872925D01*
X105977587Y-108707775D01*
X105988000Y-108605848D01*
X105988000Y-107594152D01*
X105977587Y-107492225D01*
X105922862Y-107327075D01*
X105922858Y-107327069D01*
X105922857Y-107327066D01*
X105831528Y-107179000D01*
X105831525Y-107178996D01*
X105708503Y-107055974D01*
X105708499Y-107055971D01*
X105560433Y-106964642D01*
X105560427Y-106964639D01*
X105560425Y-106964638D01*
X105509324Y-106947705D01*
X105451881Y-106907934D01*
X105425058Y-106843418D01*
X105437373Y-106774642D01*
X105484916Y-106723442D01*
X105509322Y-106712295D01*
X105560425Y-106695362D01*
X105708503Y-106604026D01*
X105831526Y-106481003D01*
X105922862Y-106332925D01*
X105977587Y-106167775D01*
X105988000Y-106065848D01*
X105988000Y-105054152D01*
X105977587Y-104952225D01*
X105922862Y-104787075D01*
X105922858Y-104787069D01*
X105922857Y-104787066D01*
X105831528Y-104639000D01*
X105831525Y-104638996D01*
X105708503Y-104515974D01*
X105708499Y-104515971D01*
X105560433Y-104424642D01*
X105560427Y-104424639D01*
X105560425Y-104424638D01*
X105509324Y-104407705D01*
X105451881Y-104367934D01*
X105425058Y-104303418D01*
X105437373Y-104234642D01*
X105484916Y-104183442D01*
X105509322Y-104172295D01*
X105560425Y-104155362D01*
X105708503Y-104064026D01*
X105831526Y-103941003D01*
X105922862Y-103792925D01*
X105977587Y-103627775D01*
X105988000Y-103525848D01*
X105988000Y-102514152D01*
X105977587Y-102412225D01*
X105922862Y-102247075D01*
X105922858Y-102247069D01*
X105922857Y-102247066D01*
X105831528Y-102099000D01*
X105831525Y-102098996D01*
X105708503Y-101975974D01*
X105708499Y-101975971D01*
X105560433Y-101884642D01*
X105560427Y-101884639D01*
X105560425Y-101884638D01*
X105509324Y-101867705D01*
X105451881Y-101827934D01*
X105425058Y-101763418D01*
X105437373Y-101694642D01*
X105484916Y-101643442D01*
X105509322Y-101632295D01*
X105560425Y-101615362D01*
X105708503Y-101524026D01*
X105831526Y-101401003D01*
X105922862Y-101252925D01*
X105977587Y-101087775D01*
X105988000Y-100985848D01*
X105988000Y-99974152D01*
X105977587Y-99872225D01*
X105922862Y-99707075D01*
X105922858Y-99707069D01*
X105922857Y-99707066D01*
X105831528Y-99559000D01*
X105831525Y-99558996D01*
X105708503Y-99435974D01*
X105708499Y-99435971D01*
X105560433Y-99344642D01*
X105560427Y-99344639D01*
X105560425Y-99344638D01*
X105509324Y-99327705D01*
X105451881Y-99287934D01*
X105425058Y-99223418D01*
X105437373Y-99154642D01*
X105484916Y-99103442D01*
X105509322Y-99092295D01*
X105560425Y-99075362D01*
X105708503Y-98984026D01*
X105831526Y-98861003D01*
X105922862Y-98712925D01*
X105977587Y-98547775D01*
X105988000Y-98445848D01*
X105988000Y-97434152D01*
X105977587Y-97332225D01*
X105922862Y-97167075D01*
X105922858Y-97167069D01*
X105922857Y-97167066D01*
X105831528Y-97019000D01*
X105831525Y-97018996D01*
X105708503Y-96895974D01*
X105708499Y-96895971D01*
X105560433Y-96804642D01*
X105560427Y-96804639D01*
X105560425Y-96804638D01*
X105509324Y-96787705D01*
X105451881Y-96747934D01*
X105425058Y-96683418D01*
X105437373Y-96614642D01*
X105484916Y-96563442D01*
X105509322Y-96552295D01*
X105560425Y-96535362D01*
X105708503Y-96444026D01*
X105831526Y-96321003D01*
X105922862Y-96172925D01*
X105977587Y-96007775D01*
X105988000Y-95905848D01*
X105988000Y-94894152D01*
X105977587Y-94792225D01*
X105922862Y-94627075D01*
X105922858Y-94627069D01*
X105922857Y-94627066D01*
X105831528Y-94479000D01*
X105831525Y-94478996D01*
X105708503Y-94355974D01*
X105708499Y-94355971D01*
X105560433Y-94264642D01*
X105560427Y-94264639D01*
X105560425Y-94264638D01*
X105509324Y-94247705D01*
X105451881Y-94207934D01*
X105425058Y-94143418D01*
X105437373Y-94074642D01*
X105484916Y-94023442D01*
X105509322Y-94012295D01*
X105560425Y-93995362D01*
X105708503Y-93904026D01*
X105831526Y-93781003D01*
X105922862Y-93632925D01*
X105977587Y-93467775D01*
X105988000Y-93365848D01*
X105988000Y-92354152D01*
X105977587Y-92252225D01*
X105922862Y-92087075D01*
X105922858Y-92087069D01*
X105922857Y-92087066D01*
X105831528Y-91939000D01*
X105831525Y-91938996D01*
X105708503Y-91815974D01*
X105708499Y-91815971D01*
X105560433Y-91724642D01*
X105560427Y-91724639D01*
X105560425Y-91724638D01*
X105509324Y-91707705D01*
X105451881Y-91667934D01*
X105425058Y-91603418D01*
X105437373Y-91534642D01*
X105484916Y-91483442D01*
X105509322Y-91472295D01*
X105560425Y-91455362D01*
X105708503Y-91364026D01*
X105831526Y-91241003D01*
X105922862Y-91092925D01*
X105977587Y-90927775D01*
X105988000Y-90825848D01*
X105988000Y-89814152D01*
X105977587Y-89712225D01*
X105922862Y-89547075D01*
X105922858Y-89547069D01*
X105922857Y-89547066D01*
X105831528Y-89399000D01*
X105831525Y-89398996D01*
X105708503Y-89275974D01*
X105708499Y-89275971D01*
X105560433Y-89184642D01*
X105560427Y-89184639D01*
X105560425Y-89184638D01*
X105509324Y-89167705D01*
X105451881Y-89127934D01*
X105425058Y-89063418D01*
X105437373Y-88994642D01*
X105484916Y-88943442D01*
X105509322Y-88932295D01*
X105560425Y-88915362D01*
X105708503Y-88824026D01*
X105831526Y-88701003D01*
X105922862Y-88552925D01*
X105977587Y-88387775D01*
X105988000Y-88285848D01*
X105988000Y-87274152D01*
X105977587Y-87172225D01*
X105922862Y-87007075D01*
X105922858Y-87007069D01*
X105922857Y-87007066D01*
X105831528Y-86859000D01*
X105831525Y-86858996D01*
X105708503Y-86735974D01*
X105708499Y-86735971D01*
X105560433Y-86644642D01*
X105560427Y-86644639D01*
X105560425Y-86644638D01*
X105509324Y-86627705D01*
X105451881Y-86587934D01*
X105425058Y-86523418D01*
X105437373Y-86454642D01*
X105484916Y-86403442D01*
X105509322Y-86392295D01*
X105560425Y-86375362D01*
X105708503Y-86284026D01*
X105831526Y-86161003D01*
X105922862Y-86012925D01*
X105977587Y-85847775D01*
X105988000Y-85745848D01*
X105988000Y-84734152D01*
X105977587Y-84632225D01*
X105922862Y-84467075D01*
X105922858Y-84467069D01*
X105922857Y-84467066D01*
X105831528Y-84319000D01*
X105831525Y-84318996D01*
X105708503Y-84195974D01*
X105708499Y-84195971D01*
X105560433Y-84104642D01*
X105560427Y-84104639D01*
X105560425Y-84104638D01*
X105509324Y-84087705D01*
X105451881Y-84047934D01*
X105425058Y-83983418D01*
X105437373Y-83914642D01*
X105484916Y-83863442D01*
X105509322Y-83852295D01*
X105560425Y-83835362D01*
X105708503Y-83744026D01*
X105831526Y-83621003D01*
X105922862Y-83472925D01*
X105977587Y-83307775D01*
X105988000Y-83205848D01*
X105988000Y-82194152D01*
X105977587Y-82092225D01*
X105922862Y-81927075D01*
X105922858Y-81927069D01*
X105922857Y-81927066D01*
X105831528Y-81779000D01*
X105831525Y-81778996D01*
X105708503Y-81655974D01*
X105708499Y-81655971D01*
X105560433Y-81564642D01*
X105560427Y-81564639D01*
X105560425Y-81564638D01*
X105509324Y-81547705D01*
X105451881Y-81507934D01*
X105425058Y-81443418D01*
X105437373Y-81374642D01*
X105484916Y-81323442D01*
X105509322Y-81312295D01*
X105560425Y-81295362D01*
X105708503Y-81204026D01*
X105831526Y-81081003D01*
X105922862Y-80932925D01*
X105977587Y-80767775D01*
X105988000Y-80665848D01*
X105988000Y-79654152D01*
X105977587Y-79552225D01*
X105922862Y-79387075D01*
X105922858Y-79387069D01*
X105922857Y-79387066D01*
X105831528Y-79239000D01*
X105831525Y-79238996D01*
X105708503Y-79115974D01*
X105708499Y-79115971D01*
X105560433Y-79024642D01*
X105560427Y-79024639D01*
X105560425Y-79024638D01*
X105509324Y-79007705D01*
X105451881Y-78967934D01*
X105425058Y-78903418D01*
X105437373Y-78834642D01*
X105484916Y-78783442D01*
X105509322Y-78772295D01*
X105560425Y-78755362D01*
X105708503Y-78664026D01*
X105831526Y-78541003D01*
X105922862Y-78392925D01*
X105977587Y-78227775D01*
X105988000Y-78125848D01*
X105988000Y-77114152D01*
X105977587Y-77012225D01*
X105922862Y-76847075D01*
X105922858Y-76847069D01*
X105922857Y-76847066D01*
X105831528Y-76699000D01*
X105831525Y-76698996D01*
X105708503Y-76575974D01*
X105708499Y-76575971D01*
X105560433Y-76484642D01*
X105560427Y-76484639D01*
X105560425Y-76484638D01*
X105509324Y-76467705D01*
X105451881Y-76427934D01*
X105425058Y-76363418D01*
X105437373Y-76294642D01*
X105484916Y-76243442D01*
X105509322Y-76232295D01*
X105560425Y-76215362D01*
X105708503Y-76124026D01*
X105831526Y-76001003D01*
X105922862Y-75852925D01*
X105977587Y-75687775D01*
X105988000Y-75585848D01*
X105988000Y-74574152D01*
X105977587Y-74472225D01*
X105922862Y-74307075D01*
X105922858Y-74307069D01*
X105922857Y-74307066D01*
X105831528Y-74159000D01*
X105831525Y-74158996D01*
X105708503Y-74035974D01*
X105708499Y-74035971D01*
X105560433Y-73944642D01*
X105560427Y-73944639D01*
X105560425Y-73944638D01*
X105509324Y-73927705D01*
X105451881Y-73887934D01*
X105425058Y-73823418D01*
X105437373Y-73754642D01*
X105484916Y-73703442D01*
X105509322Y-73692295D01*
X105560425Y-73675362D01*
X105708503Y-73584026D01*
X105831526Y-73461003D01*
X105922862Y-73312925D01*
X105977587Y-73147775D01*
X105988000Y-73045848D01*
X105988000Y-72034152D01*
X105977587Y-71932225D01*
X105922862Y-71767075D01*
X105922858Y-71767069D01*
X105922857Y-71767066D01*
X105831528Y-71619000D01*
X105831525Y-71618996D01*
X105708503Y-71495974D01*
X105708499Y-71495971D01*
X105560433Y-71404642D01*
X105560427Y-71404639D01*
X105560425Y-71404638D01*
X105509324Y-71387705D01*
X105451881Y-71347934D01*
X105425058Y-71283418D01*
X105437373Y-71214642D01*
X105484916Y-71163442D01*
X105509322Y-71152295D01*
X105560425Y-71135362D01*
X105708503Y-71044026D01*
X105831526Y-70921003D01*
X105922862Y-70772925D01*
X105977587Y-70607775D01*
X105988000Y-70505848D01*
X105988000Y-69494152D01*
X105977587Y-69392225D01*
X105922862Y-69227075D01*
X105922858Y-69227069D01*
X105922857Y-69227066D01*
X105831528Y-69079000D01*
X105831525Y-69078996D01*
X105708503Y-68955974D01*
X105708499Y-68955971D01*
X105560433Y-68864642D01*
X105560427Y-68864639D01*
X105560425Y-68864638D01*
X105560422Y-68864637D01*
X105395276Y-68809913D01*
X105293355Y-68799500D01*
X105293348Y-68799500D01*
X104706652Y-68799500D01*
X104706644Y-68799500D01*
X104604723Y-68809913D01*
X104439577Y-68864637D01*
X104439566Y-68864642D01*
X104291500Y-68955971D01*
X104228863Y-69018607D01*
X104167539Y-69052091D01*
X104097848Y-69047105D01*
X104053502Y-69018605D01*
X103996402Y-68961505D01*
X103802830Y-68825965D01*
X103802828Y-68825964D01*
X103695746Y-68776030D01*
X103588663Y-68726097D01*
X103588659Y-68726096D01*
X103588655Y-68726094D01*
X103360413Y-68664938D01*
X103360403Y-68664936D01*
X103183966Y-68649500D01*
X99941034Y-68649500D01*
X99941027Y-68649500D01*
X99102129Y-68649500D01*
X99102123Y-68649501D01*
X99042516Y-68655908D01*
X98907671Y-68706202D01*
X98907664Y-68706206D01*
X98792455Y-68792452D01*
X98792452Y-68792455D01*
X98706206Y-68907664D01*
X98706202Y-68907671D01*
X98655908Y-69042517D01*
X98649501Y-69102116D01*
X98649500Y-69102135D01*
X98649500Y-69938322D01*
X98649264Y-69943728D01*
X98644341Y-69999998D01*
X98644341Y-70000001D01*
X98649264Y-70056271D01*
X98649500Y-70061677D01*
X98649500Y-70897870D01*
X98649501Y-70897876D01*
X98655908Y-70957483D01*
X98706202Y-71092328D01*
X98706206Y-71092335D01*
X98792452Y-71207544D01*
X98792455Y-71207547D01*
X98907664Y-71293793D01*
X98907671Y-71293797D01*
X99039082Y-71342810D01*
X99095016Y-71384681D01*
X99119433Y-71450145D01*
X99104582Y-71518418D01*
X99083431Y-71546673D01*
X98961501Y-71668603D01*
X98961501Y-71668604D01*
X98825967Y-71862165D01*
X98825965Y-71862169D01*
X98793298Y-71932225D01*
X98726098Y-72076335D01*
X98726094Y-72076344D01*
X98664938Y-72304586D01*
X98664936Y-72304596D01*
X98644341Y-72539999D01*
X98644341Y-72540000D01*
X98664936Y-72775403D01*
X98664938Y-72775413D01*
X98726094Y-73003655D01*
X98726096Y-73003659D01*
X98726097Y-73003663D01*
X98745772Y-73045855D01*
X98825965Y-73217830D01*
X98825967Y-73217834D01*
X98961501Y-73411395D01*
X98961506Y-73411402D01*
X99128597Y-73578493D01*
X99128603Y-73578498D01*
X99314158Y-73708425D01*
X99357783Y-73763002D01*
X99364977Y-73832500D01*
X99333454Y-73894855D01*
X99314158Y-73911575D01*
X99128597Y-74041505D01*
X98961506Y-74208597D01*
X98961501Y-74208604D01*
X98825967Y-74402165D01*
X98825965Y-74402169D01*
X98793298Y-74472225D01*
X98726098Y-74616335D01*
X98726094Y-74616344D01*
X98664938Y-74844586D01*
X98664936Y-74844596D01*
X98644341Y-75079999D01*
X98644341Y-75080000D01*
X98664936Y-75315403D01*
X98664938Y-75315413D01*
X98726094Y-75543655D01*
X98726096Y-75543659D01*
X98726097Y-75543663D01*
X98745772Y-75585855D01*
X98825965Y-75757830D01*
X98825967Y-75757834D01*
X98961501Y-75951395D01*
X98961506Y-75951402D01*
X99128597Y-76118493D01*
X99128603Y-76118498D01*
X99314158Y-76248425D01*
X99357783Y-76303002D01*
X99364977Y-76372500D01*
X99333454Y-76434855D01*
X99314158Y-76451575D01*
X99128597Y-76581505D01*
X98961506Y-76748597D01*
X98961501Y-76748604D01*
X98825967Y-76942165D01*
X98825965Y-76942169D01*
X98793298Y-77012225D01*
X98726098Y-77156335D01*
X98726094Y-77156344D01*
X98664938Y-77384586D01*
X98664936Y-77384596D01*
X98644341Y-77619999D01*
X98644341Y-77620000D01*
X98664936Y-77855403D01*
X98664938Y-77855413D01*
X98726094Y-78083655D01*
X98726096Y-78083659D01*
X98726097Y-78083663D01*
X98745772Y-78125855D01*
X98825965Y-78297830D01*
X98825967Y-78297834D01*
X98961501Y-78491395D01*
X98961506Y-78491402D01*
X99128597Y-78658493D01*
X99128603Y-78658498D01*
X99314158Y-78788425D01*
X99357783Y-78843002D01*
X99364977Y-78912500D01*
X99333454Y-78974855D01*
X99314158Y-78991575D01*
X99128597Y-79121505D01*
X98961506Y-79288597D01*
X98961501Y-79288604D01*
X98825967Y-79482165D01*
X98825965Y-79482169D01*
X98793298Y-79552225D01*
X98726098Y-79696335D01*
X98726094Y-79696344D01*
X98664938Y-79924586D01*
X98664936Y-79924596D01*
X98644341Y-80159999D01*
X98644341Y-80160000D01*
X98664936Y-80395403D01*
X98664938Y-80395413D01*
X98726094Y-80623655D01*
X98726096Y-80623659D01*
X98726097Y-80623663D01*
X98745772Y-80665855D01*
X98825965Y-80837830D01*
X98825967Y-80837834D01*
X98961501Y-81031395D01*
X98961506Y-81031402D01*
X99128597Y-81198493D01*
X99128603Y-81198498D01*
X99314158Y-81328425D01*
X99357783Y-81383002D01*
X99364977Y-81452500D01*
X99333454Y-81514855D01*
X99314158Y-81531575D01*
X99128597Y-81661505D01*
X98961506Y-81828597D01*
X98961501Y-81828604D01*
X98825967Y-82022165D01*
X98825965Y-82022169D01*
X98793298Y-82092225D01*
X98726098Y-82236335D01*
X98726094Y-82236344D01*
X98664938Y-82464586D01*
X98664936Y-82464596D01*
X98644341Y-82699999D01*
X98644341Y-82700000D01*
X98664936Y-82935403D01*
X98664938Y-82935413D01*
X98726094Y-83163655D01*
X98726096Y-83163659D01*
X98726097Y-83163663D01*
X98745772Y-83205855D01*
X98825965Y-83377830D01*
X98825967Y-83377834D01*
X98961501Y-83571395D01*
X98961506Y-83571402D01*
X99128597Y-83738493D01*
X99128603Y-83738498D01*
X99314158Y-83868425D01*
X99357783Y-83923002D01*
X99364977Y-83992500D01*
X99333454Y-84054855D01*
X99314158Y-84071575D01*
X99128597Y-84201505D01*
X98961506Y-84368597D01*
X98961501Y-84368604D01*
X98825967Y-84562165D01*
X98825965Y-84562169D01*
X98793298Y-84632225D01*
X98726098Y-84776335D01*
X98726094Y-84776344D01*
X98664938Y-85004586D01*
X98664936Y-85004596D01*
X98644341Y-85239999D01*
X98644341Y-85240000D01*
X98664936Y-85475403D01*
X98664938Y-85475413D01*
X98726094Y-85703655D01*
X98726096Y-85703659D01*
X98726097Y-85703663D01*
X98745772Y-85745855D01*
X98825965Y-85917830D01*
X98825967Y-85917834D01*
X98961501Y-86111395D01*
X98961506Y-86111402D01*
X99128597Y-86278493D01*
X99128603Y-86278498D01*
X99314158Y-86408425D01*
X99357783Y-86463002D01*
X99364977Y-86532500D01*
X99333454Y-86594855D01*
X99314158Y-86611575D01*
X99128597Y-86741505D01*
X98961506Y-86908597D01*
X98961501Y-86908604D01*
X98825967Y-87102165D01*
X98825965Y-87102169D01*
X98793298Y-87172225D01*
X98726098Y-87316335D01*
X98726094Y-87316344D01*
X98664938Y-87544586D01*
X98664936Y-87544596D01*
X98644341Y-87779999D01*
X98644341Y-87780000D01*
X98664936Y-88015403D01*
X98664938Y-88015413D01*
X98726094Y-88243655D01*
X98726096Y-88243659D01*
X98726097Y-88243663D01*
X98745772Y-88285855D01*
X98825965Y-88457830D01*
X98825967Y-88457834D01*
X98961501Y-88651395D01*
X98961506Y-88651402D01*
X99128597Y-88818493D01*
X99128603Y-88818498D01*
X99314158Y-88948425D01*
X99357783Y-89003002D01*
X99364977Y-89072500D01*
X99333454Y-89134855D01*
X99314158Y-89151575D01*
X99128597Y-89281505D01*
X98961506Y-89448597D01*
X98961501Y-89448604D01*
X98825967Y-89642165D01*
X98825965Y-89642169D01*
X98793298Y-89712225D01*
X98726098Y-89856335D01*
X98726094Y-89856344D01*
X98664938Y-90084586D01*
X98664936Y-90084596D01*
X98644341Y-90319999D01*
X98644341Y-90320000D01*
X98664936Y-90555403D01*
X98664938Y-90555413D01*
X98726094Y-90783655D01*
X98726096Y-90783659D01*
X98726097Y-90783663D01*
X98745772Y-90825855D01*
X98825965Y-90997830D01*
X98825967Y-90997834D01*
X98961501Y-91191395D01*
X98961506Y-91191402D01*
X99128597Y-91358493D01*
X99128603Y-91358498D01*
X99314158Y-91488425D01*
X99357783Y-91543002D01*
X99364977Y-91612500D01*
X99333454Y-91674855D01*
X99314158Y-91691575D01*
X99128597Y-91821505D01*
X98961506Y-91988597D01*
X98961501Y-91988604D01*
X98825967Y-92182165D01*
X98825965Y-92182169D01*
X98793298Y-92252225D01*
X98726098Y-92396335D01*
X98726094Y-92396344D01*
X98664938Y-92624586D01*
X98664936Y-92624596D01*
X98644341Y-92859999D01*
X98644341Y-92860000D01*
X98664936Y-93095403D01*
X98664938Y-93095413D01*
X98726094Y-93323655D01*
X98726096Y-93323659D01*
X98726097Y-93323663D01*
X98745772Y-93365855D01*
X98825965Y-93537830D01*
X98825967Y-93537834D01*
X98961501Y-93731395D01*
X98961506Y-93731402D01*
X99128597Y-93898493D01*
X99128603Y-93898498D01*
X99314158Y-94028425D01*
X99357783Y-94083002D01*
X99364977Y-94152500D01*
X99333454Y-94214855D01*
X99314158Y-94231575D01*
X99128597Y-94361505D01*
X98961506Y-94528597D01*
X98961501Y-94528604D01*
X98825967Y-94722165D01*
X98825965Y-94722169D01*
X98793298Y-94792225D01*
X98726098Y-94936335D01*
X98726094Y-94936344D01*
X98664938Y-95164586D01*
X98664936Y-95164596D01*
X98644341Y-95399999D01*
X98644341Y-95400000D01*
X98664936Y-95635403D01*
X98664938Y-95635413D01*
X98726094Y-95863655D01*
X98726096Y-95863659D01*
X98726097Y-95863663D01*
X98745772Y-95905855D01*
X98825965Y-96077830D01*
X98825967Y-96077834D01*
X98961501Y-96271395D01*
X98961506Y-96271402D01*
X99128597Y-96438493D01*
X99128603Y-96438498D01*
X99314158Y-96568425D01*
X99357783Y-96623002D01*
X99364977Y-96692500D01*
X99333454Y-96754855D01*
X99314158Y-96771575D01*
X99128597Y-96901505D01*
X98961506Y-97068597D01*
X98961501Y-97068604D01*
X98825967Y-97262165D01*
X98825965Y-97262169D01*
X98793298Y-97332225D01*
X98726098Y-97476335D01*
X98726094Y-97476344D01*
X98664938Y-97704586D01*
X98664936Y-97704596D01*
X98644341Y-97939999D01*
X98644341Y-97940000D01*
X98664936Y-98175403D01*
X98664938Y-98175413D01*
X98726094Y-98403655D01*
X98726096Y-98403659D01*
X98726097Y-98403663D01*
X98745772Y-98445855D01*
X98825965Y-98617830D01*
X98825967Y-98617834D01*
X98961501Y-98811395D01*
X98961506Y-98811402D01*
X99128597Y-98978493D01*
X99128603Y-98978498D01*
X99314158Y-99108425D01*
X99357783Y-99163002D01*
X99364977Y-99232500D01*
X99333454Y-99294855D01*
X99314158Y-99311575D01*
X99128597Y-99441505D01*
X98961506Y-99608597D01*
X98961501Y-99608604D01*
X98825967Y-99802165D01*
X98825965Y-99802169D01*
X98793298Y-99872225D01*
X98726098Y-100016335D01*
X98726094Y-100016344D01*
X98664938Y-100244586D01*
X98664936Y-100244596D01*
X98644341Y-100479999D01*
X98644341Y-100480000D01*
X98664936Y-100715403D01*
X98664938Y-100715413D01*
X98726094Y-100943655D01*
X98726096Y-100943659D01*
X98726097Y-100943663D01*
X98745772Y-100985855D01*
X98825965Y-101157830D01*
X98825967Y-101157834D01*
X98961501Y-101351395D01*
X98961506Y-101351402D01*
X99128597Y-101518493D01*
X99128603Y-101518498D01*
X99314158Y-101648425D01*
X99357783Y-101703002D01*
X99364977Y-101772500D01*
X99333454Y-101834855D01*
X99314158Y-101851575D01*
X99128597Y-101981505D01*
X98961506Y-102148597D01*
X98961501Y-102148604D01*
X98825967Y-102342165D01*
X98825965Y-102342169D01*
X98793298Y-102412225D01*
X98726098Y-102556335D01*
X98726094Y-102556344D01*
X98664938Y-102784586D01*
X98664936Y-102784596D01*
X98644341Y-103019999D01*
X98644341Y-103020000D01*
X98664936Y-103255403D01*
X98664938Y-103255413D01*
X98726094Y-103483655D01*
X98726096Y-103483659D01*
X98726097Y-103483663D01*
X98745772Y-103525855D01*
X98825965Y-103697830D01*
X98825967Y-103697834D01*
X98961501Y-103891395D01*
X98961506Y-103891402D01*
X99128597Y-104058493D01*
X99128603Y-104058498D01*
X99314158Y-104188425D01*
X99357783Y-104243002D01*
X99364977Y-104312500D01*
X99333454Y-104374855D01*
X99314158Y-104391575D01*
X99128597Y-104521505D01*
X98961506Y-104688597D01*
X98961501Y-104688604D01*
X98825967Y-104882165D01*
X98825965Y-104882169D01*
X98793298Y-104952225D01*
X98726098Y-105096335D01*
X98726094Y-105096344D01*
X98664938Y-105324586D01*
X98664936Y-105324596D01*
X98644341Y-105559999D01*
X98644341Y-105560000D01*
X98664936Y-105795403D01*
X98664938Y-105795413D01*
X98726094Y-106023655D01*
X98726096Y-106023659D01*
X98726097Y-106023663D01*
X98745772Y-106065855D01*
X98825965Y-106237830D01*
X98825967Y-106237834D01*
X98961501Y-106431395D01*
X98961506Y-106431402D01*
X99128597Y-106598493D01*
X99128603Y-106598498D01*
X99314158Y-106728425D01*
X99357783Y-106783002D01*
X99364977Y-106852500D01*
X99333454Y-106914855D01*
X99314158Y-106931575D01*
X99128597Y-107061505D01*
X98961506Y-107228597D01*
X98961501Y-107228604D01*
X98825967Y-107422165D01*
X98825965Y-107422169D01*
X98793298Y-107492225D01*
X98726098Y-107636335D01*
X98726094Y-107636344D01*
X98664938Y-107864586D01*
X98664936Y-107864596D01*
X98644341Y-108099999D01*
X98644341Y-108100000D01*
X98664936Y-108335403D01*
X98664938Y-108335413D01*
X98726094Y-108563655D01*
X98726096Y-108563659D01*
X98726097Y-108563663D01*
X98745772Y-108605855D01*
X98825965Y-108777830D01*
X98825967Y-108777834D01*
X98961501Y-108971395D01*
X98961506Y-108971402D01*
X99128597Y-109138493D01*
X99128603Y-109138498D01*
X99314158Y-109268425D01*
X99357783Y-109323002D01*
X99364977Y-109392500D01*
X99333454Y-109454855D01*
X99314158Y-109471575D01*
X99128597Y-109601505D01*
X98961506Y-109768597D01*
X98961501Y-109768604D01*
X98825967Y-109962165D01*
X98825965Y-109962169D01*
X98793298Y-110032225D01*
X98726098Y-110176335D01*
X98726094Y-110176344D01*
X98664938Y-110404586D01*
X98664936Y-110404596D01*
X98644341Y-110639999D01*
X98644341Y-110640000D01*
X98664936Y-110875403D01*
X98664938Y-110875413D01*
X98726094Y-111103655D01*
X98726096Y-111103659D01*
X98726097Y-111103663D01*
X98745772Y-111145855D01*
X98825965Y-111317830D01*
X98825967Y-111317834D01*
X98961501Y-111511395D01*
X98961506Y-111511402D01*
X99128597Y-111678493D01*
X99128603Y-111678498D01*
X99314158Y-111808425D01*
X99357783Y-111863002D01*
X99364977Y-111932500D01*
X99333454Y-111994855D01*
X99314158Y-112011575D01*
X99128597Y-112141505D01*
X98961506Y-112308597D01*
X98961501Y-112308604D01*
X98825967Y-112502165D01*
X98825965Y-112502169D01*
X98793298Y-112572225D01*
X98726098Y-112716335D01*
X98726094Y-112716344D01*
X98664938Y-112944586D01*
X98664936Y-112944596D01*
X98644341Y-113179999D01*
X98644341Y-113180000D01*
X98664936Y-113415403D01*
X98664938Y-113415413D01*
X98726094Y-113643655D01*
X98726096Y-113643659D01*
X98726097Y-113643663D01*
X98745772Y-113685855D01*
X98825965Y-113857830D01*
X98825967Y-113857834D01*
X98961501Y-114051395D01*
X98961506Y-114051402D01*
X99128597Y-114218493D01*
X99128603Y-114218498D01*
X99314158Y-114348425D01*
X99357783Y-114403002D01*
X99364977Y-114472500D01*
X99333454Y-114534855D01*
X99314158Y-114551575D01*
X99128597Y-114681505D01*
X98961506Y-114848597D01*
X98961501Y-114848604D01*
X98825967Y-115042165D01*
X98825965Y-115042169D01*
X98793298Y-115112225D01*
X98726098Y-115256335D01*
X98726094Y-115256344D01*
X98664938Y-115484586D01*
X98664936Y-115484596D01*
X98644341Y-115719999D01*
X98644341Y-115720000D01*
X98664936Y-115955403D01*
X98664938Y-115955413D01*
X98726094Y-116183655D01*
X98726096Y-116183659D01*
X98726097Y-116183663D01*
X98745772Y-116225855D01*
X98825965Y-116397830D01*
X98825967Y-116397834D01*
X98961501Y-116591395D01*
X98961506Y-116591402D01*
X99128597Y-116758493D01*
X99128603Y-116758498D01*
X99314158Y-116888425D01*
X99357783Y-116943002D01*
X99364977Y-117012500D01*
X99333454Y-117074855D01*
X99314158Y-117091575D01*
X99128597Y-117221505D01*
X98961506Y-117388597D01*
X98961501Y-117388604D01*
X98825967Y-117582165D01*
X98825965Y-117582169D01*
X98793298Y-117652225D01*
X98726098Y-117796335D01*
X98726094Y-117796344D01*
X98664938Y-118024586D01*
X98664936Y-118024596D01*
X98644341Y-118259999D01*
X98644341Y-118260000D01*
X98664936Y-118495403D01*
X98664938Y-118495413D01*
X98726094Y-118723655D01*
X98726096Y-118723659D01*
X98726097Y-118723663D01*
X98745772Y-118765855D01*
X98825965Y-118937830D01*
X98825967Y-118937834D01*
X98961501Y-119131395D01*
X98961506Y-119131402D01*
X99128597Y-119298493D01*
X99128603Y-119298498D01*
X99314158Y-119428425D01*
X99357783Y-119483002D01*
X99364977Y-119552500D01*
X99333454Y-119614855D01*
X99314158Y-119631575D01*
X99128597Y-119761505D01*
X98961506Y-119928597D01*
X98961501Y-119928604D01*
X98825967Y-120122165D01*
X98825965Y-120122169D01*
X98793298Y-120192225D01*
X98726098Y-120336335D01*
X98726094Y-120336344D01*
X98664938Y-120564586D01*
X98664936Y-120564596D01*
X98644341Y-120799999D01*
X98644341Y-120800000D01*
X98664936Y-121035403D01*
X98664938Y-121035413D01*
X98726094Y-121263655D01*
X98726096Y-121263659D01*
X98726097Y-121263663D01*
X98745772Y-121305855D01*
X98825965Y-121477830D01*
X98825967Y-121477834D01*
X98961501Y-121671395D01*
X98961506Y-121671402D01*
X99128597Y-121838493D01*
X99128603Y-121838498D01*
X99314158Y-121968425D01*
X99357783Y-122023002D01*
X99364977Y-122092500D01*
X99333454Y-122154855D01*
X99314158Y-122171575D01*
X99128597Y-122301505D01*
X98961506Y-122468597D01*
X98961501Y-122468604D01*
X98825967Y-122662165D01*
X98825965Y-122662169D01*
X98793298Y-122732225D01*
X98726098Y-122876335D01*
X98726094Y-122876344D01*
X98664938Y-123104586D01*
X98664936Y-123104596D01*
X98644341Y-123339999D01*
X98644341Y-123340000D01*
X98664936Y-123575403D01*
X98664938Y-123575413D01*
X98726094Y-123803655D01*
X98726096Y-123803659D01*
X98726097Y-123803663D01*
X98745772Y-123845855D01*
X98825965Y-124017830D01*
X98825967Y-124017834D01*
X98961501Y-124211395D01*
X98961506Y-124211402D01*
X99128597Y-124378493D01*
X99128603Y-124378498D01*
X99314158Y-124508425D01*
X99357783Y-124563002D01*
X99364977Y-124632500D01*
X99333454Y-124694855D01*
X99314158Y-124711575D01*
X99128597Y-124841505D01*
X98961506Y-125008597D01*
X98961501Y-125008604D01*
X98825967Y-125202165D01*
X98825965Y-125202169D01*
X98793298Y-125272225D01*
X98726098Y-125416335D01*
X98726094Y-125416344D01*
X98664938Y-125644586D01*
X98664936Y-125644596D01*
X98644341Y-125879999D01*
X98644341Y-125880000D01*
X98664936Y-126115403D01*
X98664938Y-126115413D01*
X98726094Y-126343655D01*
X98726096Y-126343659D01*
X98726097Y-126343663D01*
X98745772Y-126385855D01*
X98825965Y-126557830D01*
X98825967Y-126557834D01*
X98961501Y-126751395D01*
X98961506Y-126751402D01*
X99128597Y-126918493D01*
X99128603Y-126918498D01*
X99314158Y-127048425D01*
X99357783Y-127103002D01*
X99364977Y-127172500D01*
X99333454Y-127234855D01*
X99314158Y-127251575D01*
X99128597Y-127381505D01*
X98961506Y-127548597D01*
X98961501Y-127548604D01*
X98825967Y-127742165D01*
X98825965Y-127742169D01*
X98793298Y-127812225D01*
X98726098Y-127956335D01*
X98726094Y-127956344D01*
X98664938Y-128184586D01*
X98664936Y-128184596D01*
X98644341Y-128419999D01*
X98644341Y-128420000D01*
X98664936Y-128655403D01*
X98664938Y-128655413D01*
X98726094Y-128883655D01*
X98726096Y-128883659D01*
X98726097Y-128883663D01*
X98745772Y-128925855D01*
X98825965Y-129097830D01*
X98825967Y-129097834D01*
X98961501Y-129291395D01*
X98961506Y-129291402D01*
X99128597Y-129458493D01*
X99128603Y-129458498D01*
X99314158Y-129588425D01*
X99357783Y-129643002D01*
X99364977Y-129712500D01*
X99333454Y-129774855D01*
X99314158Y-129791575D01*
X99128597Y-129921505D01*
X98961506Y-130088597D01*
X98961501Y-130088604D01*
X98825967Y-130282165D01*
X98825965Y-130282169D01*
X98793298Y-130352225D01*
X98726098Y-130496335D01*
X98726094Y-130496344D01*
X98664938Y-130724586D01*
X98664936Y-130724596D01*
X98644341Y-130959999D01*
X98644341Y-130960000D01*
X98664936Y-131195403D01*
X98664938Y-131195413D01*
X98726094Y-131423655D01*
X98726096Y-131423659D01*
X98726097Y-131423663D01*
X98745772Y-131465855D01*
X98825965Y-131637830D01*
X98825967Y-131637834D01*
X98961501Y-131831395D01*
X98961506Y-131831402D01*
X99128597Y-131998493D01*
X99128603Y-131998498D01*
X99314158Y-132128425D01*
X99357783Y-132183002D01*
X99364977Y-132252500D01*
X99333454Y-132314855D01*
X99314158Y-132331575D01*
X99128597Y-132461505D01*
X98961506Y-132628597D01*
X98961501Y-132628604D01*
X98825967Y-132822165D01*
X98825965Y-132822169D01*
X98793298Y-132892225D01*
X98726098Y-133036335D01*
X98726094Y-133036344D01*
X98664938Y-133264586D01*
X98664936Y-133264596D01*
X98644341Y-133499999D01*
X98644341Y-133500000D01*
X98664936Y-133735403D01*
X98664938Y-133735413D01*
X98726094Y-133963655D01*
X98726096Y-133963659D01*
X98726097Y-133963663D01*
X98745772Y-134005855D01*
X98825965Y-134177830D01*
X98825967Y-134177834D01*
X98961501Y-134371395D01*
X98961506Y-134371402D01*
X99128597Y-134538493D01*
X99128603Y-134538498D01*
X99314158Y-134668425D01*
X99357783Y-134723002D01*
X99364977Y-134792500D01*
X99333454Y-134854855D01*
X99314158Y-134871575D01*
X99128597Y-135001505D01*
X98961506Y-135168597D01*
X98961501Y-135168604D01*
X98825967Y-135362165D01*
X98825965Y-135362169D01*
X98793298Y-135432225D01*
X98726098Y-135576335D01*
X98726094Y-135576344D01*
X98664938Y-135804586D01*
X98664936Y-135804596D01*
X98644341Y-136039999D01*
X98644341Y-136040000D01*
X98664936Y-136275403D01*
X98664938Y-136275413D01*
X98726094Y-136503655D01*
X98726096Y-136503659D01*
X98726097Y-136503663D01*
X98745772Y-136545855D01*
X98825965Y-136717830D01*
X98825967Y-136717834D01*
X98961501Y-136911395D01*
X98961506Y-136911402D01*
X99128597Y-137078493D01*
X99128603Y-137078498D01*
X99314158Y-137208425D01*
X99357783Y-137263002D01*
X99364977Y-137332500D01*
X99333454Y-137394855D01*
X99314158Y-137411575D01*
X99128597Y-137541505D01*
X98961506Y-137708597D01*
X98961501Y-137708604D01*
X98825967Y-137902165D01*
X98825965Y-137902169D01*
X98793298Y-137972225D01*
X98726098Y-138116335D01*
X98726094Y-138116344D01*
X98664938Y-138344586D01*
X98664936Y-138344596D01*
X98644341Y-138579999D01*
X98644341Y-138580000D01*
X98664936Y-138815403D01*
X98664938Y-138815413D01*
X98726094Y-139043655D01*
X98726096Y-139043659D01*
X98726097Y-139043663D01*
X98745772Y-139085855D01*
X98825965Y-139257830D01*
X98825967Y-139257834D01*
X98961501Y-139451395D01*
X98961506Y-139451402D01*
X99128597Y-139618493D01*
X99128603Y-139618498D01*
X99314158Y-139748425D01*
X99357783Y-139803002D01*
X99364977Y-139872500D01*
X99333454Y-139934855D01*
X99314158Y-139951575D01*
X99128597Y-140081505D01*
X98961506Y-140248597D01*
X98961501Y-140248604D01*
X98825967Y-140442165D01*
X98825965Y-140442169D01*
X98793298Y-140512225D01*
X98726098Y-140656335D01*
X98726094Y-140656344D01*
X98664938Y-140884586D01*
X98664936Y-140884596D01*
X98644341Y-141119999D01*
X98644341Y-141120000D01*
X98664936Y-141355403D01*
X98664938Y-141355413D01*
X98726094Y-141583655D01*
X98726096Y-141583659D01*
X98726097Y-141583663D01*
X98745772Y-141625855D01*
X98825965Y-141797830D01*
X98825967Y-141797834D01*
X98961501Y-141991395D01*
X98961506Y-141991402D01*
X99128597Y-142158493D01*
X99128603Y-142158498D01*
X99314158Y-142288425D01*
X99357783Y-142343002D01*
X99364977Y-142412500D01*
X99333454Y-142474855D01*
X99314158Y-142491575D01*
X99128597Y-142621505D01*
X98961506Y-142788597D01*
X98961501Y-142788604D01*
X98825967Y-142982165D01*
X98825965Y-142982169D01*
X98793298Y-143052225D01*
X98726098Y-143196335D01*
X98726094Y-143196344D01*
X98664938Y-143424586D01*
X98664936Y-143424596D01*
X98644341Y-143659999D01*
X98644341Y-143660000D01*
X98000500Y-143660000D01*
X98000500Y-67003046D01*
X98000799Y-66996966D01*
X98003971Y-66964753D01*
X98003972Y-66964748D01*
X98016136Y-66856785D01*
X98020690Y-66834693D01*
X98036596Y-66782260D01*
X98063708Y-66704778D01*
X98071378Y-66687312D01*
X98099429Y-66634832D01*
X98101580Y-66631127D01*
X98144491Y-66562834D01*
X98149048Y-66556506D01*
X98190822Y-66505604D01*
X98194862Y-66501146D01*
X98251146Y-66444862D01*
X98255604Y-66440822D01*
X98306506Y-66399048D01*
X98312834Y-66394491D01*
X98381127Y-66351580D01*
X98384832Y-66349429D01*
X98437312Y-66321378D01*
X98454778Y-66313708D01*
X98532262Y-66286595D01*
X98584689Y-66270691D01*
X98606785Y-66266136D01*
X98714706Y-66253976D01*
X98745218Y-66250970D01*
X98746965Y-66250799D01*
X98753044Y-66250500D01*
X111496955Y-66250500D01*
X111503034Y-66250799D01*
G37*
G04 #@! TD.AperFunction*
M02*
