M48
; DRILL file {KiCad 7.0.6} date Sat Apr 20 21:55:15 2024
; FORMAT={-:-/ absolute / metric / decimal}
; #@! TF.CreationDate,2024-04-20T21:55:15+01:00
; #@! TF.GenerationSoftware,Kicad,Pcbnew,7.0.6
; #@! TF.FileFunction,Plated,1,2,PTH
FMAT,2
METRIC
; #@! TA.AperFunction,Plated,PTH,ViaDrill
T1C0.300
; #@! TA.AperFunction,Plated,PTH,ComponentDrill
T2C1.000
%
G90
G05
T1
X98.708Y-71.28
X98.708Y-73.82
X98.708Y-76.36
X98.708Y-78.9
X98.708Y-81.44
X98.708Y-83.98
X98.708Y-86.52
X98.708Y-89.06
X98.708Y-91.6
X98.708Y-94.14
X98.708Y-96.68
X98.708Y-99.22
X98.708Y-101.76
X98.708Y-104.3
X98.708Y-106.84
X98.708Y-109.38
X98.708Y-111.92
X98.708Y-114.46
X98.708Y-117.0
X98.708Y-119.54
X98.708Y-122.08
X98.708Y-124.62
X98.708Y-127.16
X98.708Y-129.7
X98.708Y-132.24
X98.708Y-134.78
X98.708Y-137.32
X98.708Y-139.86
X98.708Y-142.4
X98.708Y-144.94
X99.0Y-68.0
X99.0Y-146.0
X100.0Y-68.0
X100.0Y-146.0
X101.0Y-68.0
X101.0Y-146.0
X102.0Y-68.0
X102.0Y-146.0
X103.0Y-68.0
X103.0Y-146.0
X104.0Y-68.0
X104.0Y-146.0
X105.0Y-68.0
X105.0Y-70.0
X105.0Y-72.54
X105.0Y-75.08
X105.0Y-77.62
X105.0Y-80.16
X105.0Y-82.7
X105.0Y-85.24
X105.0Y-87.78
X105.0Y-90.32
X105.0Y-92.86
X105.0Y-95.4
X105.0Y-97.94
X105.0Y-100.48
X105.0Y-103.02
X105.0Y-105.56
X105.0Y-108.1
X105.0Y-110.64
X105.0Y-113.18
X105.0Y-115.72
X105.0Y-118.26
X105.0Y-120.8
X105.0Y-123.34
X105.0Y-125.88
X105.0Y-128.42
X105.0Y-130.96
X105.0Y-133.5
X105.0Y-136.04
X105.0Y-138.58
X105.0Y-141.12
X105.0Y-143.66
X105.0Y-146.0
X106.0Y-68.0
X106.0Y-146.0
X107.0Y-68.0
X107.0Y-146.0
X107.95Y-71.28
X107.95Y-73.82
X107.95Y-76.36
X107.95Y-78.9
X107.95Y-81.44
X107.95Y-83.98
X107.95Y-86.52
X107.95Y-89.06
X107.95Y-91.6
X107.95Y-94.14
X107.95Y-96.68
X107.95Y-99.22
X107.95Y-101.76
X107.95Y-104.3
X107.95Y-106.84
X107.95Y-109.38
X107.95Y-111.92
X107.95Y-114.46
X107.95Y-117.0
X107.95Y-119.54
X107.95Y-122.08
X107.95Y-124.62
X107.95Y-127.16
X107.95Y-129.7
X107.95Y-132.24
X107.95Y-134.78
X107.95Y-137.32
X107.95Y-139.86
X107.95Y-142.4
X107.95Y-144.94
X108.0Y-68.0
X108.0Y-146.0
X109.0Y-68.0
X109.0Y-146.0
X110.0Y-68.0
X110.0Y-146.0
X111.0Y-68.0
X111.0Y-146.0
T2
X100.0Y-70.0
X100.0Y-72.54
X100.0Y-75.08
X100.0Y-77.62
X100.0Y-80.16
X100.0Y-82.7
X100.0Y-85.24
X100.0Y-87.78
X100.0Y-90.32
X100.0Y-92.86
X100.0Y-95.4
X100.0Y-97.94
X100.0Y-100.48
X100.0Y-103.02
X100.0Y-105.56
X100.0Y-108.1
X100.0Y-110.64
X100.0Y-113.18
X100.0Y-115.72
X100.0Y-118.26
X100.0Y-120.8
X100.0Y-123.34
X100.0Y-125.88
X100.0Y-128.42
X100.0Y-130.96
X100.0Y-133.5
X100.0Y-136.04
X100.0Y-138.58
X100.0Y-141.12
X100.0Y-143.66
X110.16Y-70.0
X110.16Y-72.54
X110.16Y-75.08
X110.16Y-77.62
X110.16Y-80.16
X110.16Y-82.7
X110.16Y-85.24
X110.16Y-87.78
X110.16Y-90.32
X110.16Y-92.86
X110.16Y-95.4
X110.16Y-97.94
X110.16Y-100.48
X110.16Y-103.02
X110.16Y-105.56
X110.16Y-108.1
X110.16Y-110.64
X110.16Y-113.18
X110.16Y-115.72
X110.16Y-118.26
X110.16Y-120.8
X110.16Y-123.34
X110.16Y-125.88
X110.16Y-128.42
X110.16Y-130.96
X110.16Y-133.5
X110.16Y-136.04
X110.16Y-138.58
X110.16Y-141.12
X110.16Y-143.66
T0
M30
