G04 #@! TF.GenerationSoftware,KiCad,Pcbnew,7.0.6*
G04 #@! TF.CreationDate,2024-04-20T21:55:13+01:00*
G04 #@! TF.ProjectId,BreadboardIndicator,42726561-6462-46f6-9172-64496e646963,rev?*
G04 #@! TF.SameCoordinates,Original*
G04 #@! TF.FileFunction,Legend,Bot*
G04 #@! TF.FilePolarity,Positive*
%FSLAX46Y46*%
G04 Gerber Fmt 4.6, Leading zero omitted, Abs format (unit mm)*
G04 Created by KiCad (PCBNEW 7.0.6) date 2024-04-20 21:55:13*
%MOMM*%
%LPD*%
G01*
G04 APERTURE LIST*
G04 Aperture macros list*
%AMRoundRect*
0 Rectangle with rounded corners*
0 $1 Rounding radius*
0 $2 $3 $4 $5 $6 $7 $8 $9 X,Y pos of 4 corners*
0 Add a 4 corners polygon primitive as box body*
4,1,4,$2,$3,$4,$5,$6,$7,$8,$9,$2,$3,0*
0 Add four circle primitives for the rounded corners*
1,1,$1+$1,$2,$3*
1,1,$1+$1,$4,$5*
1,1,$1+$1,$6,$7*
1,1,$1+$1,$8,$9*
0 Add four rect primitives between the rounded corners*
20,1,$1+$1,$2,$3,$4,$5,0*
20,1,$1+$1,$4,$5,$6,$7,0*
20,1,$1+$1,$6,$7,$8,$9,0*
20,1,$1+$1,$8,$9,$2,$3,0*%
G04 Aperture macros list end*
%ADD10C,0.150000*%
%ADD11C,0.120000*%
%ADD12RoundRect,0.250000X-0.262500X-0.450000X0.262500X-0.450000X0.262500X0.450000X-0.262500X0.450000X0*%
%ADD13R,1.700000X1.700000*%
%ADD14O,1.700000X1.700000*%
G04 APERTURE END LIST*
D10*
X108106000Y-67724000D02*
X107344000Y-67216000D01*
X107344000Y-67216000D02*
X107344000Y-68232000D01*
X107344000Y-68232000D02*
X108106000Y-67724000D01*
X107344000Y-67724000D02*
X102010000Y-67724000D01*
X100847792Y-146587819D02*
X101181125Y-146111628D01*
X101419220Y-146587819D02*
X101419220Y-145587819D01*
X101419220Y-145587819D02*
X101038268Y-145587819D01*
X101038268Y-145587819D02*
X100943030Y-145635438D01*
X100943030Y-145635438D02*
X100895411Y-145683057D01*
X100895411Y-145683057D02*
X100847792Y-145778295D01*
X100847792Y-145778295D02*
X100847792Y-145921152D01*
X100847792Y-145921152D02*
X100895411Y-146016390D01*
X100895411Y-146016390D02*
X100943030Y-146064009D01*
X100943030Y-146064009D02*
X101038268Y-146111628D01*
X101038268Y-146111628D02*
X101419220Y-146111628D01*
X99895411Y-146587819D02*
X100466839Y-146587819D01*
X100181125Y-146587819D02*
X100181125Y-145587819D01*
X100181125Y-145587819D02*
X100276363Y-145730676D01*
X100276363Y-145730676D02*
X100371601Y-145825914D01*
X100371601Y-145825914D02*
X100466839Y-145873533D01*
X99466839Y-146492580D02*
X99419220Y-146540200D01*
X99419220Y-146540200D02*
X99466839Y-146587819D01*
X99466839Y-146587819D02*
X99514458Y-146540200D01*
X99514458Y-146540200D02*
X99466839Y-146492580D01*
X99466839Y-146492580D02*
X99466839Y-146587819D01*
X98800173Y-145587819D02*
X98704935Y-145587819D01*
X98704935Y-145587819D02*
X98609697Y-145635438D01*
X98609697Y-145635438D02*
X98562078Y-145683057D01*
X98562078Y-145683057D02*
X98514459Y-145778295D01*
X98514459Y-145778295D02*
X98466840Y-145968771D01*
X98466840Y-145968771D02*
X98466840Y-146206866D01*
X98466840Y-146206866D02*
X98514459Y-146397342D01*
X98514459Y-146397342D02*
X98562078Y-146492580D01*
X98562078Y-146492580D02*
X98609697Y-146540200D01*
X98609697Y-146540200D02*
X98704935Y-146587819D01*
X98704935Y-146587819D02*
X98800173Y-146587819D01*
X98800173Y-146587819D02*
X98895411Y-146540200D01*
X98895411Y-146540200D02*
X98943030Y-146492580D01*
X98943030Y-146492580D02*
X98990649Y-146397342D01*
X98990649Y-146397342D02*
X99038268Y-146206866D01*
X99038268Y-146206866D02*
X99038268Y-145968771D01*
X99038268Y-145968771D02*
X98990649Y-145778295D01*
X98990649Y-145778295D02*
X98943030Y-145683057D01*
X98943030Y-145683057D02*
X98895411Y-145635438D01*
X98895411Y-145635438D02*
X98800173Y-145587819D01*
X111579220Y-146587819D02*
X111579220Y-145587819D01*
X111579220Y-145587819D02*
X111341125Y-145587819D01*
X111341125Y-145587819D02*
X111198268Y-145635438D01*
X111198268Y-145635438D02*
X111103030Y-145730676D01*
X111103030Y-145730676D02*
X111055411Y-145825914D01*
X111055411Y-145825914D02*
X111007792Y-146016390D01*
X111007792Y-146016390D02*
X111007792Y-146159247D01*
X111007792Y-146159247D02*
X111055411Y-146349723D01*
X111055411Y-146349723D02*
X111103030Y-146444961D01*
X111103030Y-146444961D02*
X111198268Y-146540200D01*
X111198268Y-146540200D02*
X111341125Y-146587819D01*
X111341125Y-146587819D02*
X111579220Y-146587819D01*
X109960172Y-145587819D02*
X109626839Y-146587819D01*
X109626839Y-146587819D02*
X109293506Y-145587819D01*
X108483982Y-146587819D02*
X108960172Y-146587819D01*
X108960172Y-146587819D02*
X108960172Y-145587819D01*
X108198267Y-146302104D02*
X107722077Y-146302104D01*
X108293505Y-146587819D02*
X107960172Y-145587819D01*
X107960172Y-145587819D02*
X107626839Y-146587819D01*
X106722077Y-146492580D02*
X106769696Y-146540200D01*
X106769696Y-146540200D02*
X106912553Y-146587819D01*
X106912553Y-146587819D02*
X107007791Y-146587819D01*
X107007791Y-146587819D02*
X107150648Y-146540200D01*
X107150648Y-146540200D02*
X107245886Y-146444961D01*
X107245886Y-146444961D02*
X107293505Y-146349723D01*
X107293505Y-146349723D02*
X107341124Y-146159247D01*
X107341124Y-146159247D02*
X107341124Y-146016390D01*
X107341124Y-146016390D02*
X107293505Y-145825914D01*
X107293505Y-145825914D02*
X107245886Y-145730676D01*
X107245886Y-145730676D02*
X107150648Y-145635438D01*
X107150648Y-145635438D02*
X107007791Y-145587819D01*
X107007791Y-145587819D02*
X106912553Y-145587819D01*
X106912553Y-145587819D02*
X106769696Y-145635438D01*
X106769696Y-145635438D02*
X106722077Y-145683057D01*
X106293505Y-146587819D02*
X106293505Y-145587819D01*
X106293505Y-146064009D02*
X105722077Y-146064009D01*
X105722077Y-146587819D02*
X105722077Y-145587819D01*
X105055410Y-145587819D02*
X104864934Y-145587819D01*
X104864934Y-145587819D02*
X104769696Y-145635438D01*
X104769696Y-145635438D02*
X104674458Y-145730676D01*
X104674458Y-145730676D02*
X104626839Y-145921152D01*
X104626839Y-145921152D02*
X104626839Y-146254485D01*
X104626839Y-146254485D02*
X104674458Y-146444961D01*
X104674458Y-146444961D02*
X104769696Y-146540200D01*
X104769696Y-146540200D02*
X104864934Y-146587819D01*
X104864934Y-146587819D02*
X105055410Y-146587819D01*
X105055410Y-146587819D02*
X105150648Y-146540200D01*
X105150648Y-146540200D02*
X105245886Y-146444961D01*
X105245886Y-146444961D02*
X105293505Y-146254485D01*
X105293505Y-146254485D02*
X105293505Y-145921152D01*
X105293505Y-145921152D02*
X105245886Y-145730676D01*
X105245886Y-145730676D02*
X105150648Y-145635438D01*
X105150648Y-145635438D02*
X105055410Y-145587819D01*
X104245886Y-146540200D02*
X104103029Y-146587819D01*
X104103029Y-146587819D02*
X103864934Y-146587819D01*
X103864934Y-146587819D02*
X103769696Y-146540200D01*
X103769696Y-146540200D02*
X103722077Y-146492580D01*
X103722077Y-146492580D02*
X103674458Y-146397342D01*
X103674458Y-146397342D02*
X103674458Y-146302104D01*
X103674458Y-146302104D02*
X103722077Y-146206866D01*
X103722077Y-146206866D02*
X103769696Y-146159247D01*
X103769696Y-146159247D02*
X103864934Y-146111628D01*
X103864934Y-146111628D02*
X104055410Y-146064009D01*
X104055410Y-146064009D02*
X104150648Y-146016390D01*
X104150648Y-146016390D02*
X104198267Y-145968771D01*
X104198267Y-145968771D02*
X104245886Y-145873533D01*
X104245886Y-145873533D02*
X104245886Y-145778295D01*
X104245886Y-145778295D02*
X104198267Y-145683057D01*
X104198267Y-145683057D02*
X104150648Y-145635438D01*
X104150648Y-145635438D02*
X104055410Y-145587819D01*
X104055410Y-145587819D02*
X103817315Y-145587819D01*
X103817315Y-145587819D02*
X103674458Y-145635438D01*
X103442857Y-144154819D02*
X103776190Y-143678628D01*
X104014285Y-144154819D02*
X104014285Y-143154819D01*
X104014285Y-143154819D02*
X103633333Y-143154819D01*
X103633333Y-143154819D02*
X103538095Y-143202438D01*
X103538095Y-143202438D02*
X103490476Y-143250057D01*
X103490476Y-143250057D02*
X103442857Y-143345295D01*
X103442857Y-143345295D02*
X103442857Y-143488152D01*
X103442857Y-143488152D02*
X103490476Y-143583390D01*
X103490476Y-143583390D02*
X103538095Y-143631009D01*
X103538095Y-143631009D02*
X103633333Y-143678628D01*
X103633333Y-143678628D02*
X104014285Y-143678628D01*
X103109523Y-143154819D02*
X102490476Y-143154819D01*
X102490476Y-143154819D02*
X102823809Y-143535771D01*
X102823809Y-143535771D02*
X102680952Y-143535771D01*
X102680952Y-143535771D02*
X102585714Y-143583390D01*
X102585714Y-143583390D02*
X102538095Y-143631009D01*
X102538095Y-143631009D02*
X102490476Y-143726247D01*
X102490476Y-143726247D02*
X102490476Y-143964342D01*
X102490476Y-143964342D02*
X102538095Y-144059580D01*
X102538095Y-144059580D02*
X102585714Y-144107200D01*
X102585714Y-144107200D02*
X102680952Y-144154819D01*
X102680952Y-144154819D02*
X102966666Y-144154819D01*
X102966666Y-144154819D02*
X103061904Y-144107200D01*
X103061904Y-144107200D02*
X103109523Y-144059580D01*
X101871428Y-143154819D02*
X101776190Y-143154819D01*
X101776190Y-143154819D02*
X101680952Y-143202438D01*
X101680952Y-143202438D02*
X101633333Y-143250057D01*
X101633333Y-143250057D02*
X101585714Y-143345295D01*
X101585714Y-143345295D02*
X101538095Y-143535771D01*
X101538095Y-143535771D02*
X101538095Y-143773866D01*
X101538095Y-143773866D02*
X101585714Y-143964342D01*
X101585714Y-143964342D02*
X101633333Y-144059580D01*
X101633333Y-144059580D02*
X101680952Y-144107200D01*
X101680952Y-144107200D02*
X101776190Y-144154819D01*
X101776190Y-144154819D02*
X101871428Y-144154819D01*
X101871428Y-144154819D02*
X101966666Y-144107200D01*
X101966666Y-144107200D02*
X102014285Y-144059580D01*
X102014285Y-144059580D02*
X102061904Y-143964342D01*
X102061904Y-143964342D02*
X102109523Y-143773866D01*
X102109523Y-143773866D02*
X102109523Y-143535771D01*
X102109523Y-143535771D02*
X102061904Y-143345295D01*
X102061904Y-143345295D02*
X102014285Y-143250057D01*
X102014285Y-143250057D02*
X101966666Y-143202438D01*
X101966666Y-143202438D02*
X101871428Y-143154819D01*
X103442857Y-141654819D02*
X103776190Y-141178628D01*
X104014285Y-141654819D02*
X104014285Y-140654819D01*
X104014285Y-140654819D02*
X103633333Y-140654819D01*
X103633333Y-140654819D02*
X103538095Y-140702438D01*
X103538095Y-140702438D02*
X103490476Y-140750057D01*
X103490476Y-140750057D02*
X103442857Y-140845295D01*
X103442857Y-140845295D02*
X103442857Y-140988152D01*
X103442857Y-140988152D02*
X103490476Y-141083390D01*
X103490476Y-141083390D02*
X103538095Y-141131009D01*
X103538095Y-141131009D02*
X103633333Y-141178628D01*
X103633333Y-141178628D02*
X104014285Y-141178628D01*
X103061904Y-140750057D02*
X103014285Y-140702438D01*
X103014285Y-140702438D02*
X102919047Y-140654819D01*
X102919047Y-140654819D02*
X102680952Y-140654819D01*
X102680952Y-140654819D02*
X102585714Y-140702438D01*
X102585714Y-140702438D02*
X102538095Y-140750057D01*
X102538095Y-140750057D02*
X102490476Y-140845295D01*
X102490476Y-140845295D02*
X102490476Y-140940533D01*
X102490476Y-140940533D02*
X102538095Y-141083390D01*
X102538095Y-141083390D02*
X103109523Y-141654819D01*
X103109523Y-141654819D02*
X102490476Y-141654819D01*
X102014285Y-141654819D02*
X101823809Y-141654819D01*
X101823809Y-141654819D02*
X101728571Y-141607200D01*
X101728571Y-141607200D02*
X101680952Y-141559580D01*
X101680952Y-141559580D02*
X101585714Y-141416723D01*
X101585714Y-141416723D02*
X101538095Y-141226247D01*
X101538095Y-141226247D02*
X101538095Y-140845295D01*
X101538095Y-140845295D02*
X101585714Y-140750057D01*
X101585714Y-140750057D02*
X101633333Y-140702438D01*
X101633333Y-140702438D02*
X101728571Y-140654819D01*
X101728571Y-140654819D02*
X101919047Y-140654819D01*
X101919047Y-140654819D02*
X102014285Y-140702438D01*
X102014285Y-140702438D02*
X102061904Y-140750057D01*
X102061904Y-140750057D02*
X102109523Y-140845295D01*
X102109523Y-140845295D02*
X102109523Y-141083390D01*
X102109523Y-141083390D02*
X102061904Y-141178628D01*
X102061904Y-141178628D02*
X102014285Y-141226247D01*
X102014285Y-141226247D02*
X101919047Y-141273866D01*
X101919047Y-141273866D02*
X101728571Y-141273866D01*
X101728571Y-141273866D02*
X101633333Y-141226247D01*
X101633333Y-141226247D02*
X101585714Y-141178628D01*
X101585714Y-141178628D02*
X101538095Y-141083390D01*
X103442857Y-139154819D02*
X103776190Y-138678628D01*
X104014285Y-139154819D02*
X104014285Y-138154819D01*
X104014285Y-138154819D02*
X103633333Y-138154819D01*
X103633333Y-138154819D02*
X103538095Y-138202438D01*
X103538095Y-138202438D02*
X103490476Y-138250057D01*
X103490476Y-138250057D02*
X103442857Y-138345295D01*
X103442857Y-138345295D02*
X103442857Y-138488152D01*
X103442857Y-138488152D02*
X103490476Y-138583390D01*
X103490476Y-138583390D02*
X103538095Y-138631009D01*
X103538095Y-138631009D02*
X103633333Y-138678628D01*
X103633333Y-138678628D02*
X104014285Y-138678628D01*
X103061904Y-138250057D02*
X103014285Y-138202438D01*
X103014285Y-138202438D02*
X102919047Y-138154819D01*
X102919047Y-138154819D02*
X102680952Y-138154819D01*
X102680952Y-138154819D02*
X102585714Y-138202438D01*
X102585714Y-138202438D02*
X102538095Y-138250057D01*
X102538095Y-138250057D02*
X102490476Y-138345295D01*
X102490476Y-138345295D02*
X102490476Y-138440533D01*
X102490476Y-138440533D02*
X102538095Y-138583390D01*
X102538095Y-138583390D02*
X103109523Y-139154819D01*
X103109523Y-139154819D02*
X102490476Y-139154819D01*
X101919047Y-138583390D02*
X102014285Y-138535771D01*
X102014285Y-138535771D02*
X102061904Y-138488152D01*
X102061904Y-138488152D02*
X102109523Y-138392914D01*
X102109523Y-138392914D02*
X102109523Y-138345295D01*
X102109523Y-138345295D02*
X102061904Y-138250057D01*
X102061904Y-138250057D02*
X102014285Y-138202438D01*
X102014285Y-138202438D02*
X101919047Y-138154819D01*
X101919047Y-138154819D02*
X101728571Y-138154819D01*
X101728571Y-138154819D02*
X101633333Y-138202438D01*
X101633333Y-138202438D02*
X101585714Y-138250057D01*
X101585714Y-138250057D02*
X101538095Y-138345295D01*
X101538095Y-138345295D02*
X101538095Y-138392914D01*
X101538095Y-138392914D02*
X101585714Y-138488152D01*
X101585714Y-138488152D02*
X101633333Y-138535771D01*
X101633333Y-138535771D02*
X101728571Y-138583390D01*
X101728571Y-138583390D02*
X101919047Y-138583390D01*
X101919047Y-138583390D02*
X102014285Y-138631009D01*
X102014285Y-138631009D02*
X102061904Y-138678628D01*
X102061904Y-138678628D02*
X102109523Y-138773866D01*
X102109523Y-138773866D02*
X102109523Y-138964342D01*
X102109523Y-138964342D02*
X102061904Y-139059580D01*
X102061904Y-139059580D02*
X102014285Y-139107200D01*
X102014285Y-139107200D02*
X101919047Y-139154819D01*
X101919047Y-139154819D02*
X101728571Y-139154819D01*
X101728571Y-139154819D02*
X101633333Y-139107200D01*
X101633333Y-139107200D02*
X101585714Y-139059580D01*
X101585714Y-139059580D02*
X101538095Y-138964342D01*
X101538095Y-138964342D02*
X101538095Y-138773866D01*
X101538095Y-138773866D02*
X101585714Y-138678628D01*
X101585714Y-138678628D02*
X101633333Y-138631009D01*
X101633333Y-138631009D02*
X101728571Y-138583390D01*
X103442857Y-136614819D02*
X103776190Y-136138628D01*
X104014285Y-136614819D02*
X104014285Y-135614819D01*
X104014285Y-135614819D02*
X103633333Y-135614819D01*
X103633333Y-135614819D02*
X103538095Y-135662438D01*
X103538095Y-135662438D02*
X103490476Y-135710057D01*
X103490476Y-135710057D02*
X103442857Y-135805295D01*
X103442857Y-135805295D02*
X103442857Y-135948152D01*
X103442857Y-135948152D02*
X103490476Y-136043390D01*
X103490476Y-136043390D02*
X103538095Y-136091009D01*
X103538095Y-136091009D02*
X103633333Y-136138628D01*
X103633333Y-136138628D02*
X104014285Y-136138628D01*
X103061904Y-135710057D02*
X103014285Y-135662438D01*
X103014285Y-135662438D02*
X102919047Y-135614819D01*
X102919047Y-135614819D02*
X102680952Y-135614819D01*
X102680952Y-135614819D02*
X102585714Y-135662438D01*
X102585714Y-135662438D02*
X102538095Y-135710057D01*
X102538095Y-135710057D02*
X102490476Y-135805295D01*
X102490476Y-135805295D02*
X102490476Y-135900533D01*
X102490476Y-135900533D02*
X102538095Y-136043390D01*
X102538095Y-136043390D02*
X103109523Y-136614819D01*
X103109523Y-136614819D02*
X102490476Y-136614819D01*
X102157142Y-135614819D02*
X101490476Y-135614819D01*
X101490476Y-135614819D02*
X101919047Y-136614819D01*
X103442857Y-134054819D02*
X103776190Y-133578628D01*
X104014285Y-134054819D02*
X104014285Y-133054819D01*
X104014285Y-133054819D02*
X103633333Y-133054819D01*
X103633333Y-133054819D02*
X103538095Y-133102438D01*
X103538095Y-133102438D02*
X103490476Y-133150057D01*
X103490476Y-133150057D02*
X103442857Y-133245295D01*
X103442857Y-133245295D02*
X103442857Y-133388152D01*
X103442857Y-133388152D02*
X103490476Y-133483390D01*
X103490476Y-133483390D02*
X103538095Y-133531009D01*
X103538095Y-133531009D02*
X103633333Y-133578628D01*
X103633333Y-133578628D02*
X104014285Y-133578628D01*
X103061904Y-133150057D02*
X103014285Y-133102438D01*
X103014285Y-133102438D02*
X102919047Y-133054819D01*
X102919047Y-133054819D02*
X102680952Y-133054819D01*
X102680952Y-133054819D02*
X102585714Y-133102438D01*
X102585714Y-133102438D02*
X102538095Y-133150057D01*
X102538095Y-133150057D02*
X102490476Y-133245295D01*
X102490476Y-133245295D02*
X102490476Y-133340533D01*
X102490476Y-133340533D02*
X102538095Y-133483390D01*
X102538095Y-133483390D02*
X103109523Y-134054819D01*
X103109523Y-134054819D02*
X102490476Y-134054819D01*
X101633333Y-133054819D02*
X101823809Y-133054819D01*
X101823809Y-133054819D02*
X101919047Y-133102438D01*
X101919047Y-133102438D02*
X101966666Y-133150057D01*
X101966666Y-133150057D02*
X102061904Y-133292914D01*
X102061904Y-133292914D02*
X102109523Y-133483390D01*
X102109523Y-133483390D02*
X102109523Y-133864342D01*
X102109523Y-133864342D02*
X102061904Y-133959580D01*
X102061904Y-133959580D02*
X102014285Y-134007200D01*
X102014285Y-134007200D02*
X101919047Y-134054819D01*
X101919047Y-134054819D02*
X101728571Y-134054819D01*
X101728571Y-134054819D02*
X101633333Y-134007200D01*
X101633333Y-134007200D02*
X101585714Y-133959580D01*
X101585714Y-133959580D02*
X101538095Y-133864342D01*
X101538095Y-133864342D02*
X101538095Y-133626247D01*
X101538095Y-133626247D02*
X101585714Y-133531009D01*
X101585714Y-133531009D02*
X101633333Y-133483390D01*
X101633333Y-133483390D02*
X101728571Y-133435771D01*
X101728571Y-133435771D02*
X101919047Y-133435771D01*
X101919047Y-133435771D02*
X102014285Y-133483390D01*
X102014285Y-133483390D02*
X102061904Y-133531009D01*
X102061904Y-133531009D02*
X102109523Y-133626247D01*
X103442857Y-131514819D02*
X103776190Y-131038628D01*
X104014285Y-131514819D02*
X104014285Y-130514819D01*
X104014285Y-130514819D02*
X103633333Y-130514819D01*
X103633333Y-130514819D02*
X103538095Y-130562438D01*
X103538095Y-130562438D02*
X103490476Y-130610057D01*
X103490476Y-130610057D02*
X103442857Y-130705295D01*
X103442857Y-130705295D02*
X103442857Y-130848152D01*
X103442857Y-130848152D02*
X103490476Y-130943390D01*
X103490476Y-130943390D02*
X103538095Y-130991009D01*
X103538095Y-130991009D02*
X103633333Y-131038628D01*
X103633333Y-131038628D02*
X104014285Y-131038628D01*
X103061904Y-130610057D02*
X103014285Y-130562438D01*
X103014285Y-130562438D02*
X102919047Y-130514819D01*
X102919047Y-130514819D02*
X102680952Y-130514819D01*
X102680952Y-130514819D02*
X102585714Y-130562438D01*
X102585714Y-130562438D02*
X102538095Y-130610057D01*
X102538095Y-130610057D02*
X102490476Y-130705295D01*
X102490476Y-130705295D02*
X102490476Y-130800533D01*
X102490476Y-130800533D02*
X102538095Y-130943390D01*
X102538095Y-130943390D02*
X103109523Y-131514819D01*
X103109523Y-131514819D02*
X102490476Y-131514819D01*
X101585714Y-130514819D02*
X102061904Y-130514819D01*
X102061904Y-130514819D02*
X102109523Y-130991009D01*
X102109523Y-130991009D02*
X102061904Y-130943390D01*
X102061904Y-130943390D02*
X101966666Y-130895771D01*
X101966666Y-130895771D02*
X101728571Y-130895771D01*
X101728571Y-130895771D02*
X101633333Y-130943390D01*
X101633333Y-130943390D02*
X101585714Y-130991009D01*
X101585714Y-130991009D02*
X101538095Y-131086247D01*
X101538095Y-131086247D02*
X101538095Y-131324342D01*
X101538095Y-131324342D02*
X101585714Y-131419580D01*
X101585714Y-131419580D02*
X101633333Y-131467200D01*
X101633333Y-131467200D02*
X101728571Y-131514819D01*
X101728571Y-131514819D02*
X101966666Y-131514819D01*
X101966666Y-131514819D02*
X102061904Y-131467200D01*
X102061904Y-131467200D02*
X102109523Y-131419580D01*
X103442857Y-128974819D02*
X103776190Y-128498628D01*
X104014285Y-128974819D02*
X104014285Y-127974819D01*
X104014285Y-127974819D02*
X103633333Y-127974819D01*
X103633333Y-127974819D02*
X103538095Y-128022438D01*
X103538095Y-128022438D02*
X103490476Y-128070057D01*
X103490476Y-128070057D02*
X103442857Y-128165295D01*
X103442857Y-128165295D02*
X103442857Y-128308152D01*
X103442857Y-128308152D02*
X103490476Y-128403390D01*
X103490476Y-128403390D02*
X103538095Y-128451009D01*
X103538095Y-128451009D02*
X103633333Y-128498628D01*
X103633333Y-128498628D02*
X104014285Y-128498628D01*
X103061904Y-128070057D02*
X103014285Y-128022438D01*
X103014285Y-128022438D02*
X102919047Y-127974819D01*
X102919047Y-127974819D02*
X102680952Y-127974819D01*
X102680952Y-127974819D02*
X102585714Y-128022438D01*
X102585714Y-128022438D02*
X102538095Y-128070057D01*
X102538095Y-128070057D02*
X102490476Y-128165295D01*
X102490476Y-128165295D02*
X102490476Y-128260533D01*
X102490476Y-128260533D02*
X102538095Y-128403390D01*
X102538095Y-128403390D02*
X103109523Y-128974819D01*
X103109523Y-128974819D02*
X102490476Y-128974819D01*
X101633333Y-128308152D02*
X101633333Y-128974819D01*
X101871428Y-127927200D02*
X102109523Y-128641485D01*
X102109523Y-128641485D02*
X101490476Y-128641485D01*
X103442857Y-126354819D02*
X103776190Y-125878628D01*
X104014285Y-126354819D02*
X104014285Y-125354819D01*
X104014285Y-125354819D02*
X103633333Y-125354819D01*
X103633333Y-125354819D02*
X103538095Y-125402438D01*
X103538095Y-125402438D02*
X103490476Y-125450057D01*
X103490476Y-125450057D02*
X103442857Y-125545295D01*
X103442857Y-125545295D02*
X103442857Y-125688152D01*
X103442857Y-125688152D02*
X103490476Y-125783390D01*
X103490476Y-125783390D02*
X103538095Y-125831009D01*
X103538095Y-125831009D02*
X103633333Y-125878628D01*
X103633333Y-125878628D02*
X104014285Y-125878628D01*
X103061904Y-125450057D02*
X103014285Y-125402438D01*
X103014285Y-125402438D02*
X102919047Y-125354819D01*
X102919047Y-125354819D02*
X102680952Y-125354819D01*
X102680952Y-125354819D02*
X102585714Y-125402438D01*
X102585714Y-125402438D02*
X102538095Y-125450057D01*
X102538095Y-125450057D02*
X102490476Y-125545295D01*
X102490476Y-125545295D02*
X102490476Y-125640533D01*
X102490476Y-125640533D02*
X102538095Y-125783390D01*
X102538095Y-125783390D02*
X103109523Y-126354819D01*
X103109523Y-126354819D02*
X102490476Y-126354819D01*
X102157142Y-125354819D02*
X101538095Y-125354819D01*
X101538095Y-125354819D02*
X101871428Y-125735771D01*
X101871428Y-125735771D02*
X101728571Y-125735771D01*
X101728571Y-125735771D02*
X101633333Y-125783390D01*
X101633333Y-125783390D02*
X101585714Y-125831009D01*
X101585714Y-125831009D02*
X101538095Y-125926247D01*
X101538095Y-125926247D02*
X101538095Y-126164342D01*
X101538095Y-126164342D02*
X101585714Y-126259580D01*
X101585714Y-126259580D02*
X101633333Y-126307200D01*
X101633333Y-126307200D02*
X101728571Y-126354819D01*
X101728571Y-126354819D02*
X102014285Y-126354819D01*
X102014285Y-126354819D02*
X102109523Y-126307200D01*
X102109523Y-126307200D02*
X102157142Y-126259580D01*
X103442857Y-123814819D02*
X103776190Y-123338628D01*
X104014285Y-123814819D02*
X104014285Y-122814819D01*
X104014285Y-122814819D02*
X103633333Y-122814819D01*
X103633333Y-122814819D02*
X103538095Y-122862438D01*
X103538095Y-122862438D02*
X103490476Y-122910057D01*
X103490476Y-122910057D02*
X103442857Y-123005295D01*
X103442857Y-123005295D02*
X103442857Y-123148152D01*
X103442857Y-123148152D02*
X103490476Y-123243390D01*
X103490476Y-123243390D02*
X103538095Y-123291009D01*
X103538095Y-123291009D02*
X103633333Y-123338628D01*
X103633333Y-123338628D02*
X104014285Y-123338628D01*
X103061904Y-122910057D02*
X103014285Y-122862438D01*
X103014285Y-122862438D02*
X102919047Y-122814819D01*
X102919047Y-122814819D02*
X102680952Y-122814819D01*
X102680952Y-122814819D02*
X102585714Y-122862438D01*
X102585714Y-122862438D02*
X102538095Y-122910057D01*
X102538095Y-122910057D02*
X102490476Y-123005295D01*
X102490476Y-123005295D02*
X102490476Y-123100533D01*
X102490476Y-123100533D02*
X102538095Y-123243390D01*
X102538095Y-123243390D02*
X103109523Y-123814819D01*
X103109523Y-123814819D02*
X102490476Y-123814819D01*
X102109523Y-122910057D02*
X102061904Y-122862438D01*
X102061904Y-122862438D02*
X101966666Y-122814819D01*
X101966666Y-122814819D02*
X101728571Y-122814819D01*
X101728571Y-122814819D02*
X101633333Y-122862438D01*
X101633333Y-122862438D02*
X101585714Y-122910057D01*
X101585714Y-122910057D02*
X101538095Y-123005295D01*
X101538095Y-123005295D02*
X101538095Y-123100533D01*
X101538095Y-123100533D02*
X101585714Y-123243390D01*
X101585714Y-123243390D02*
X102157142Y-123814819D01*
X102157142Y-123814819D02*
X101538095Y-123814819D01*
X103442857Y-121274819D02*
X103776190Y-120798628D01*
X104014285Y-121274819D02*
X104014285Y-120274819D01*
X104014285Y-120274819D02*
X103633333Y-120274819D01*
X103633333Y-120274819D02*
X103538095Y-120322438D01*
X103538095Y-120322438D02*
X103490476Y-120370057D01*
X103490476Y-120370057D02*
X103442857Y-120465295D01*
X103442857Y-120465295D02*
X103442857Y-120608152D01*
X103442857Y-120608152D02*
X103490476Y-120703390D01*
X103490476Y-120703390D02*
X103538095Y-120751009D01*
X103538095Y-120751009D02*
X103633333Y-120798628D01*
X103633333Y-120798628D02*
X104014285Y-120798628D01*
X103061904Y-120370057D02*
X103014285Y-120322438D01*
X103014285Y-120322438D02*
X102919047Y-120274819D01*
X102919047Y-120274819D02*
X102680952Y-120274819D01*
X102680952Y-120274819D02*
X102585714Y-120322438D01*
X102585714Y-120322438D02*
X102538095Y-120370057D01*
X102538095Y-120370057D02*
X102490476Y-120465295D01*
X102490476Y-120465295D02*
X102490476Y-120560533D01*
X102490476Y-120560533D02*
X102538095Y-120703390D01*
X102538095Y-120703390D02*
X103109523Y-121274819D01*
X103109523Y-121274819D02*
X102490476Y-121274819D01*
X101538095Y-121274819D02*
X102109523Y-121274819D01*
X101823809Y-121274819D02*
X101823809Y-120274819D01*
X101823809Y-120274819D02*
X101919047Y-120417676D01*
X101919047Y-120417676D02*
X102014285Y-120512914D01*
X102014285Y-120512914D02*
X102109523Y-120560533D01*
X103442857Y-118734819D02*
X103776190Y-118258628D01*
X104014285Y-118734819D02*
X104014285Y-117734819D01*
X104014285Y-117734819D02*
X103633333Y-117734819D01*
X103633333Y-117734819D02*
X103538095Y-117782438D01*
X103538095Y-117782438D02*
X103490476Y-117830057D01*
X103490476Y-117830057D02*
X103442857Y-117925295D01*
X103442857Y-117925295D02*
X103442857Y-118068152D01*
X103442857Y-118068152D02*
X103490476Y-118163390D01*
X103490476Y-118163390D02*
X103538095Y-118211009D01*
X103538095Y-118211009D02*
X103633333Y-118258628D01*
X103633333Y-118258628D02*
X104014285Y-118258628D01*
X103061904Y-117830057D02*
X103014285Y-117782438D01*
X103014285Y-117782438D02*
X102919047Y-117734819D01*
X102919047Y-117734819D02*
X102680952Y-117734819D01*
X102680952Y-117734819D02*
X102585714Y-117782438D01*
X102585714Y-117782438D02*
X102538095Y-117830057D01*
X102538095Y-117830057D02*
X102490476Y-117925295D01*
X102490476Y-117925295D02*
X102490476Y-118020533D01*
X102490476Y-118020533D02*
X102538095Y-118163390D01*
X102538095Y-118163390D02*
X103109523Y-118734819D01*
X103109523Y-118734819D02*
X102490476Y-118734819D01*
X101871428Y-117734819D02*
X101776190Y-117734819D01*
X101776190Y-117734819D02*
X101680952Y-117782438D01*
X101680952Y-117782438D02*
X101633333Y-117830057D01*
X101633333Y-117830057D02*
X101585714Y-117925295D01*
X101585714Y-117925295D02*
X101538095Y-118115771D01*
X101538095Y-118115771D02*
X101538095Y-118353866D01*
X101538095Y-118353866D02*
X101585714Y-118544342D01*
X101585714Y-118544342D02*
X101633333Y-118639580D01*
X101633333Y-118639580D02*
X101680952Y-118687200D01*
X101680952Y-118687200D02*
X101776190Y-118734819D01*
X101776190Y-118734819D02*
X101871428Y-118734819D01*
X101871428Y-118734819D02*
X101966666Y-118687200D01*
X101966666Y-118687200D02*
X102014285Y-118639580D01*
X102014285Y-118639580D02*
X102061904Y-118544342D01*
X102061904Y-118544342D02*
X102109523Y-118353866D01*
X102109523Y-118353866D02*
X102109523Y-118115771D01*
X102109523Y-118115771D02*
X102061904Y-117925295D01*
X102061904Y-117925295D02*
X102014285Y-117830057D01*
X102014285Y-117830057D02*
X101966666Y-117782438D01*
X101966666Y-117782438D02*
X101871428Y-117734819D01*
X103442857Y-116294819D02*
X103776190Y-115818628D01*
X104014285Y-116294819D02*
X104014285Y-115294819D01*
X104014285Y-115294819D02*
X103633333Y-115294819D01*
X103633333Y-115294819D02*
X103538095Y-115342438D01*
X103538095Y-115342438D02*
X103490476Y-115390057D01*
X103490476Y-115390057D02*
X103442857Y-115485295D01*
X103442857Y-115485295D02*
X103442857Y-115628152D01*
X103442857Y-115628152D02*
X103490476Y-115723390D01*
X103490476Y-115723390D02*
X103538095Y-115771009D01*
X103538095Y-115771009D02*
X103633333Y-115818628D01*
X103633333Y-115818628D02*
X104014285Y-115818628D01*
X102490476Y-116294819D02*
X103061904Y-116294819D01*
X102776190Y-116294819D02*
X102776190Y-115294819D01*
X102776190Y-115294819D02*
X102871428Y-115437676D01*
X102871428Y-115437676D02*
X102966666Y-115532914D01*
X102966666Y-115532914D02*
X103061904Y-115580533D01*
X102014285Y-116294819D02*
X101823809Y-116294819D01*
X101823809Y-116294819D02*
X101728571Y-116247200D01*
X101728571Y-116247200D02*
X101680952Y-116199580D01*
X101680952Y-116199580D02*
X101585714Y-116056723D01*
X101585714Y-116056723D02*
X101538095Y-115866247D01*
X101538095Y-115866247D02*
X101538095Y-115485295D01*
X101538095Y-115485295D02*
X101585714Y-115390057D01*
X101585714Y-115390057D02*
X101633333Y-115342438D01*
X101633333Y-115342438D02*
X101728571Y-115294819D01*
X101728571Y-115294819D02*
X101919047Y-115294819D01*
X101919047Y-115294819D02*
X102014285Y-115342438D01*
X102014285Y-115342438D02*
X102061904Y-115390057D01*
X102061904Y-115390057D02*
X102109523Y-115485295D01*
X102109523Y-115485295D02*
X102109523Y-115723390D01*
X102109523Y-115723390D02*
X102061904Y-115818628D01*
X102061904Y-115818628D02*
X102014285Y-115866247D01*
X102014285Y-115866247D02*
X101919047Y-115913866D01*
X101919047Y-115913866D02*
X101728571Y-115913866D01*
X101728571Y-115913866D02*
X101633333Y-115866247D01*
X101633333Y-115866247D02*
X101585714Y-115818628D01*
X101585714Y-115818628D02*
X101538095Y-115723390D01*
X103442857Y-113754819D02*
X103776190Y-113278628D01*
X104014285Y-113754819D02*
X104014285Y-112754819D01*
X104014285Y-112754819D02*
X103633333Y-112754819D01*
X103633333Y-112754819D02*
X103538095Y-112802438D01*
X103538095Y-112802438D02*
X103490476Y-112850057D01*
X103490476Y-112850057D02*
X103442857Y-112945295D01*
X103442857Y-112945295D02*
X103442857Y-113088152D01*
X103442857Y-113088152D02*
X103490476Y-113183390D01*
X103490476Y-113183390D02*
X103538095Y-113231009D01*
X103538095Y-113231009D02*
X103633333Y-113278628D01*
X103633333Y-113278628D02*
X104014285Y-113278628D01*
X102490476Y-113754819D02*
X103061904Y-113754819D01*
X102776190Y-113754819D02*
X102776190Y-112754819D01*
X102776190Y-112754819D02*
X102871428Y-112897676D01*
X102871428Y-112897676D02*
X102966666Y-112992914D01*
X102966666Y-112992914D02*
X103061904Y-113040533D01*
X101919047Y-113183390D02*
X102014285Y-113135771D01*
X102014285Y-113135771D02*
X102061904Y-113088152D01*
X102061904Y-113088152D02*
X102109523Y-112992914D01*
X102109523Y-112992914D02*
X102109523Y-112945295D01*
X102109523Y-112945295D02*
X102061904Y-112850057D01*
X102061904Y-112850057D02*
X102014285Y-112802438D01*
X102014285Y-112802438D02*
X101919047Y-112754819D01*
X101919047Y-112754819D02*
X101728571Y-112754819D01*
X101728571Y-112754819D02*
X101633333Y-112802438D01*
X101633333Y-112802438D02*
X101585714Y-112850057D01*
X101585714Y-112850057D02*
X101538095Y-112945295D01*
X101538095Y-112945295D02*
X101538095Y-112992914D01*
X101538095Y-112992914D02*
X101585714Y-113088152D01*
X101585714Y-113088152D02*
X101633333Y-113135771D01*
X101633333Y-113135771D02*
X101728571Y-113183390D01*
X101728571Y-113183390D02*
X101919047Y-113183390D01*
X101919047Y-113183390D02*
X102014285Y-113231009D01*
X102014285Y-113231009D02*
X102061904Y-113278628D01*
X102061904Y-113278628D02*
X102109523Y-113373866D01*
X102109523Y-113373866D02*
X102109523Y-113564342D01*
X102109523Y-113564342D02*
X102061904Y-113659580D01*
X102061904Y-113659580D02*
X102014285Y-113707200D01*
X102014285Y-113707200D02*
X101919047Y-113754819D01*
X101919047Y-113754819D02*
X101728571Y-113754819D01*
X101728571Y-113754819D02*
X101633333Y-113707200D01*
X101633333Y-113707200D02*
X101585714Y-113659580D01*
X101585714Y-113659580D02*
X101538095Y-113564342D01*
X101538095Y-113564342D02*
X101538095Y-113373866D01*
X101538095Y-113373866D02*
X101585714Y-113278628D01*
X101585714Y-113278628D02*
X101633333Y-113231009D01*
X101633333Y-113231009D02*
X101728571Y-113183390D01*
X103442857Y-111214819D02*
X103776190Y-110738628D01*
X104014285Y-111214819D02*
X104014285Y-110214819D01*
X104014285Y-110214819D02*
X103633333Y-110214819D01*
X103633333Y-110214819D02*
X103538095Y-110262438D01*
X103538095Y-110262438D02*
X103490476Y-110310057D01*
X103490476Y-110310057D02*
X103442857Y-110405295D01*
X103442857Y-110405295D02*
X103442857Y-110548152D01*
X103442857Y-110548152D02*
X103490476Y-110643390D01*
X103490476Y-110643390D02*
X103538095Y-110691009D01*
X103538095Y-110691009D02*
X103633333Y-110738628D01*
X103633333Y-110738628D02*
X104014285Y-110738628D01*
X102490476Y-111214819D02*
X103061904Y-111214819D01*
X102776190Y-111214819D02*
X102776190Y-110214819D01*
X102776190Y-110214819D02*
X102871428Y-110357676D01*
X102871428Y-110357676D02*
X102966666Y-110452914D01*
X102966666Y-110452914D02*
X103061904Y-110500533D01*
X102157142Y-110214819D02*
X101490476Y-110214819D01*
X101490476Y-110214819D02*
X101919047Y-111214819D01*
X103442857Y-108674819D02*
X103776190Y-108198628D01*
X104014285Y-108674819D02*
X104014285Y-107674819D01*
X104014285Y-107674819D02*
X103633333Y-107674819D01*
X103633333Y-107674819D02*
X103538095Y-107722438D01*
X103538095Y-107722438D02*
X103490476Y-107770057D01*
X103490476Y-107770057D02*
X103442857Y-107865295D01*
X103442857Y-107865295D02*
X103442857Y-108008152D01*
X103442857Y-108008152D02*
X103490476Y-108103390D01*
X103490476Y-108103390D02*
X103538095Y-108151009D01*
X103538095Y-108151009D02*
X103633333Y-108198628D01*
X103633333Y-108198628D02*
X104014285Y-108198628D01*
X102490476Y-108674819D02*
X103061904Y-108674819D01*
X102776190Y-108674819D02*
X102776190Y-107674819D01*
X102776190Y-107674819D02*
X102871428Y-107817676D01*
X102871428Y-107817676D02*
X102966666Y-107912914D01*
X102966666Y-107912914D02*
X103061904Y-107960533D01*
X101633333Y-107674819D02*
X101823809Y-107674819D01*
X101823809Y-107674819D02*
X101919047Y-107722438D01*
X101919047Y-107722438D02*
X101966666Y-107770057D01*
X101966666Y-107770057D02*
X102061904Y-107912914D01*
X102061904Y-107912914D02*
X102109523Y-108103390D01*
X102109523Y-108103390D02*
X102109523Y-108484342D01*
X102109523Y-108484342D02*
X102061904Y-108579580D01*
X102061904Y-108579580D02*
X102014285Y-108627200D01*
X102014285Y-108627200D02*
X101919047Y-108674819D01*
X101919047Y-108674819D02*
X101728571Y-108674819D01*
X101728571Y-108674819D02*
X101633333Y-108627200D01*
X101633333Y-108627200D02*
X101585714Y-108579580D01*
X101585714Y-108579580D02*
X101538095Y-108484342D01*
X101538095Y-108484342D02*
X101538095Y-108246247D01*
X101538095Y-108246247D02*
X101585714Y-108151009D01*
X101585714Y-108151009D02*
X101633333Y-108103390D01*
X101633333Y-108103390D02*
X101728571Y-108055771D01*
X101728571Y-108055771D02*
X101919047Y-108055771D01*
X101919047Y-108055771D02*
X102014285Y-108103390D01*
X102014285Y-108103390D02*
X102061904Y-108151009D01*
X102061904Y-108151009D02*
X102109523Y-108246247D01*
X103442857Y-106154819D02*
X103776190Y-105678628D01*
X104014285Y-106154819D02*
X104014285Y-105154819D01*
X104014285Y-105154819D02*
X103633333Y-105154819D01*
X103633333Y-105154819D02*
X103538095Y-105202438D01*
X103538095Y-105202438D02*
X103490476Y-105250057D01*
X103490476Y-105250057D02*
X103442857Y-105345295D01*
X103442857Y-105345295D02*
X103442857Y-105488152D01*
X103442857Y-105488152D02*
X103490476Y-105583390D01*
X103490476Y-105583390D02*
X103538095Y-105631009D01*
X103538095Y-105631009D02*
X103633333Y-105678628D01*
X103633333Y-105678628D02*
X104014285Y-105678628D01*
X102490476Y-106154819D02*
X103061904Y-106154819D01*
X102776190Y-106154819D02*
X102776190Y-105154819D01*
X102776190Y-105154819D02*
X102871428Y-105297676D01*
X102871428Y-105297676D02*
X102966666Y-105392914D01*
X102966666Y-105392914D02*
X103061904Y-105440533D01*
X101585714Y-105154819D02*
X102061904Y-105154819D01*
X102061904Y-105154819D02*
X102109523Y-105631009D01*
X102109523Y-105631009D02*
X102061904Y-105583390D01*
X102061904Y-105583390D02*
X101966666Y-105535771D01*
X101966666Y-105535771D02*
X101728571Y-105535771D01*
X101728571Y-105535771D02*
X101633333Y-105583390D01*
X101633333Y-105583390D02*
X101585714Y-105631009D01*
X101585714Y-105631009D02*
X101538095Y-105726247D01*
X101538095Y-105726247D02*
X101538095Y-105964342D01*
X101538095Y-105964342D02*
X101585714Y-106059580D01*
X101585714Y-106059580D02*
X101633333Y-106107200D01*
X101633333Y-106107200D02*
X101728571Y-106154819D01*
X101728571Y-106154819D02*
X101966666Y-106154819D01*
X101966666Y-106154819D02*
X102061904Y-106107200D01*
X102061904Y-106107200D02*
X102109523Y-106059580D01*
X103442857Y-103614819D02*
X103776190Y-103138628D01*
X104014285Y-103614819D02*
X104014285Y-102614819D01*
X104014285Y-102614819D02*
X103633333Y-102614819D01*
X103633333Y-102614819D02*
X103538095Y-102662438D01*
X103538095Y-102662438D02*
X103490476Y-102710057D01*
X103490476Y-102710057D02*
X103442857Y-102805295D01*
X103442857Y-102805295D02*
X103442857Y-102948152D01*
X103442857Y-102948152D02*
X103490476Y-103043390D01*
X103490476Y-103043390D02*
X103538095Y-103091009D01*
X103538095Y-103091009D02*
X103633333Y-103138628D01*
X103633333Y-103138628D02*
X104014285Y-103138628D01*
X102490476Y-103614819D02*
X103061904Y-103614819D01*
X102776190Y-103614819D02*
X102776190Y-102614819D01*
X102776190Y-102614819D02*
X102871428Y-102757676D01*
X102871428Y-102757676D02*
X102966666Y-102852914D01*
X102966666Y-102852914D02*
X103061904Y-102900533D01*
X101633333Y-102948152D02*
X101633333Y-103614819D01*
X101871428Y-102567200D02*
X102109523Y-103281485D01*
X102109523Y-103281485D02*
X101490476Y-103281485D01*
X103442857Y-101054819D02*
X103776190Y-100578628D01*
X104014285Y-101054819D02*
X104014285Y-100054819D01*
X104014285Y-100054819D02*
X103633333Y-100054819D01*
X103633333Y-100054819D02*
X103538095Y-100102438D01*
X103538095Y-100102438D02*
X103490476Y-100150057D01*
X103490476Y-100150057D02*
X103442857Y-100245295D01*
X103442857Y-100245295D02*
X103442857Y-100388152D01*
X103442857Y-100388152D02*
X103490476Y-100483390D01*
X103490476Y-100483390D02*
X103538095Y-100531009D01*
X103538095Y-100531009D02*
X103633333Y-100578628D01*
X103633333Y-100578628D02*
X104014285Y-100578628D01*
X102490476Y-101054819D02*
X103061904Y-101054819D01*
X102776190Y-101054819D02*
X102776190Y-100054819D01*
X102776190Y-100054819D02*
X102871428Y-100197676D01*
X102871428Y-100197676D02*
X102966666Y-100292914D01*
X102966666Y-100292914D02*
X103061904Y-100340533D01*
X102157142Y-100054819D02*
X101538095Y-100054819D01*
X101538095Y-100054819D02*
X101871428Y-100435771D01*
X101871428Y-100435771D02*
X101728571Y-100435771D01*
X101728571Y-100435771D02*
X101633333Y-100483390D01*
X101633333Y-100483390D02*
X101585714Y-100531009D01*
X101585714Y-100531009D02*
X101538095Y-100626247D01*
X101538095Y-100626247D02*
X101538095Y-100864342D01*
X101538095Y-100864342D02*
X101585714Y-100959580D01*
X101585714Y-100959580D02*
X101633333Y-101007200D01*
X101633333Y-101007200D02*
X101728571Y-101054819D01*
X101728571Y-101054819D02*
X102014285Y-101054819D01*
X102014285Y-101054819D02*
X102109523Y-101007200D01*
X102109523Y-101007200D02*
X102157142Y-100959580D01*
X103442857Y-98514819D02*
X103776190Y-98038628D01*
X104014285Y-98514819D02*
X104014285Y-97514819D01*
X104014285Y-97514819D02*
X103633333Y-97514819D01*
X103633333Y-97514819D02*
X103538095Y-97562438D01*
X103538095Y-97562438D02*
X103490476Y-97610057D01*
X103490476Y-97610057D02*
X103442857Y-97705295D01*
X103442857Y-97705295D02*
X103442857Y-97848152D01*
X103442857Y-97848152D02*
X103490476Y-97943390D01*
X103490476Y-97943390D02*
X103538095Y-97991009D01*
X103538095Y-97991009D02*
X103633333Y-98038628D01*
X103633333Y-98038628D02*
X104014285Y-98038628D01*
X102490476Y-98514819D02*
X103061904Y-98514819D01*
X102776190Y-98514819D02*
X102776190Y-97514819D01*
X102776190Y-97514819D02*
X102871428Y-97657676D01*
X102871428Y-97657676D02*
X102966666Y-97752914D01*
X102966666Y-97752914D02*
X103061904Y-97800533D01*
X102109523Y-97610057D02*
X102061904Y-97562438D01*
X102061904Y-97562438D02*
X101966666Y-97514819D01*
X101966666Y-97514819D02*
X101728571Y-97514819D01*
X101728571Y-97514819D02*
X101633333Y-97562438D01*
X101633333Y-97562438D02*
X101585714Y-97610057D01*
X101585714Y-97610057D02*
X101538095Y-97705295D01*
X101538095Y-97705295D02*
X101538095Y-97800533D01*
X101538095Y-97800533D02*
X101585714Y-97943390D01*
X101585714Y-97943390D02*
X102157142Y-98514819D01*
X102157142Y-98514819D02*
X101538095Y-98514819D01*
X103442857Y-95974819D02*
X103776190Y-95498628D01*
X104014285Y-95974819D02*
X104014285Y-94974819D01*
X104014285Y-94974819D02*
X103633333Y-94974819D01*
X103633333Y-94974819D02*
X103538095Y-95022438D01*
X103538095Y-95022438D02*
X103490476Y-95070057D01*
X103490476Y-95070057D02*
X103442857Y-95165295D01*
X103442857Y-95165295D02*
X103442857Y-95308152D01*
X103442857Y-95308152D02*
X103490476Y-95403390D01*
X103490476Y-95403390D02*
X103538095Y-95451009D01*
X103538095Y-95451009D02*
X103633333Y-95498628D01*
X103633333Y-95498628D02*
X104014285Y-95498628D01*
X102490476Y-95974819D02*
X103061904Y-95974819D01*
X102776190Y-95974819D02*
X102776190Y-94974819D01*
X102776190Y-94974819D02*
X102871428Y-95117676D01*
X102871428Y-95117676D02*
X102966666Y-95212914D01*
X102966666Y-95212914D02*
X103061904Y-95260533D01*
X101538095Y-95974819D02*
X102109523Y-95974819D01*
X101823809Y-95974819D02*
X101823809Y-94974819D01*
X101823809Y-94974819D02*
X101919047Y-95117676D01*
X101919047Y-95117676D02*
X102014285Y-95212914D01*
X102014285Y-95212914D02*
X102109523Y-95260533D01*
X103442857Y-93454819D02*
X103776190Y-92978628D01*
X104014285Y-93454819D02*
X104014285Y-92454819D01*
X104014285Y-92454819D02*
X103633333Y-92454819D01*
X103633333Y-92454819D02*
X103538095Y-92502438D01*
X103538095Y-92502438D02*
X103490476Y-92550057D01*
X103490476Y-92550057D02*
X103442857Y-92645295D01*
X103442857Y-92645295D02*
X103442857Y-92788152D01*
X103442857Y-92788152D02*
X103490476Y-92883390D01*
X103490476Y-92883390D02*
X103538095Y-92931009D01*
X103538095Y-92931009D02*
X103633333Y-92978628D01*
X103633333Y-92978628D02*
X104014285Y-92978628D01*
X102490476Y-93454819D02*
X103061904Y-93454819D01*
X102776190Y-93454819D02*
X102776190Y-92454819D01*
X102776190Y-92454819D02*
X102871428Y-92597676D01*
X102871428Y-92597676D02*
X102966666Y-92692914D01*
X102966666Y-92692914D02*
X103061904Y-92740533D01*
X101871428Y-92454819D02*
X101776190Y-92454819D01*
X101776190Y-92454819D02*
X101680952Y-92502438D01*
X101680952Y-92502438D02*
X101633333Y-92550057D01*
X101633333Y-92550057D02*
X101585714Y-92645295D01*
X101585714Y-92645295D02*
X101538095Y-92835771D01*
X101538095Y-92835771D02*
X101538095Y-93073866D01*
X101538095Y-93073866D02*
X101585714Y-93264342D01*
X101585714Y-93264342D02*
X101633333Y-93359580D01*
X101633333Y-93359580D02*
X101680952Y-93407200D01*
X101680952Y-93407200D02*
X101776190Y-93454819D01*
X101776190Y-93454819D02*
X101871428Y-93454819D01*
X101871428Y-93454819D02*
X101966666Y-93407200D01*
X101966666Y-93407200D02*
X102014285Y-93359580D01*
X102014285Y-93359580D02*
X102061904Y-93264342D01*
X102061904Y-93264342D02*
X102109523Y-93073866D01*
X102109523Y-93073866D02*
X102109523Y-92835771D01*
X102109523Y-92835771D02*
X102061904Y-92645295D01*
X102061904Y-92645295D02*
X102014285Y-92550057D01*
X102014285Y-92550057D02*
X101966666Y-92502438D01*
X101966666Y-92502438D02*
X101871428Y-92454819D01*
X102966666Y-90914819D02*
X103299999Y-90438628D01*
X103538094Y-90914819D02*
X103538094Y-89914819D01*
X103538094Y-89914819D02*
X103157142Y-89914819D01*
X103157142Y-89914819D02*
X103061904Y-89962438D01*
X103061904Y-89962438D02*
X103014285Y-90010057D01*
X103014285Y-90010057D02*
X102966666Y-90105295D01*
X102966666Y-90105295D02*
X102966666Y-90248152D01*
X102966666Y-90248152D02*
X103014285Y-90343390D01*
X103014285Y-90343390D02*
X103061904Y-90391009D01*
X103061904Y-90391009D02*
X103157142Y-90438628D01*
X103157142Y-90438628D02*
X103538094Y-90438628D01*
X102490475Y-90914819D02*
X102299999Y-90914819D01*
X102299999Y-90914819D02*
X102204761Y-90867200D01*
X102204761Y-90867200D02*
X102157142Y-90819580D01*
X102157142Y-90819580D02*
X102061904Y-90676723D01*
X102061904Y-90676723D02*
X102014285Y-90486247D01*
X102014285Y-90486247D02*
X102014285Y-90105295D01*
X102014285Y-90105295D02*
X102061904Y-90010057D01*
X102061904Y-90010057D02*
X102109523Y-89962438D01*
X102109523Y-89962438D02*
X102204761Y-89914819D01*
X102204761Y-89914819D02*
X102395237Y-89914819D01*
X102395237Y-89914819D02*
X102490475Y-89962438D01*
X102490475Y-89962438D02*
X102538094Y-90010057D01*
X102538094Y-90010057D02*
X102585713Y-90105295D01*
X102585713Y-90105295D02*
X102585713Y-90343390D01*
X102585713Y-90343390D02*
X102538094Y-90438628D01*
X102538094Y-90438628D02*
X102490475Y-90486247D01*
X102490475Y-90486247D02*
X102395237Y-90533866D01*
X102395237Y-90533866D02*
X102204761Y-90533866D01*
X102204761Y-90533866D02*
X102109523Y-90486247D01*
X102109523Y-90486247D02*
X102061904Y-90438628D01*
X102061904Y-90438628D02*
X102014285Y-90343390D01*
X103066666Y-88454819D02*
X103399999Y-87978628D01*
X103638094Y-88454819D02*
X103638094Y-87454819D01*
X103638094Y-87454819D02*
X103257142Y-87454819D01*
X103257142Y-87454819D02*
X103161904Y-87502438D01*
X103161904Y-87502438D02*
X103114285Y-87550057D01*
X103114285Y-87550057D02*
X103066666Y-87645295D01*
X103066666Y-87645295D02*
X103066666Y-87788152D01*
X103066666Y-87788152D02*
X103114285Y-87883390D01*
X103114285Y-87883390D02*
X103161904Y-87931009D01*
X103161904Y-87931009D02*
X103257142Y-87978628D01*
X103257142Y-87978628D02*
X103638094Y-87978628D01*
X102495237Y-87883390D02*
X102590475Y-87835771D01*
X102590475Y-87835771D02*
X102638094Y-87788152D01*
X102638094Y-87788152D02*
X102685713Y-87692914D01*
X102685713Y-87692914D02*
X102685713Y-87645295D01*
X102685713Y-87645295D02*
X102638094Y-87550057D01*
X102638094Y-87550057D02*
X102590475Y-87502438D01*
X102590475Y-87502438D02*
X102495237Y-87454819D01*
X102495237Y-87454819D02*
X102304761Y-87454819D01*
X102304761Y-87454819D02*
X102209523Y-87502438D01*
X102209523Y-87502438D02*
X102161904Y-87550057D01*
X102161904Y-87550057D02*
X102114285Y-87645295D01*
X102114285Y-87645295D02*
X102114285Y-87692914D01*
X102114285Y-87692914D02*
X102161904Y-87788152D01*
X102161904Y-87788152D02*
X102209523Y-87835771D01*
X102209523Y-87835771D02*
X102304761Y-87883390D01*
X102304761Y-87883390D02*
X102495237Y-87883390D01*
X102495237Y-87883390D02*
X102590475Y-87931009D01*
X102590475Y-87931009D02*
X102638094Y-87978628D01*
X102638094Y-87978628D02*
X102685713Y-88073866D01*
X102685713Y-88073866D02*
X102685713Y-88264342D01*
X102685713Y-88264342D02*
X102638094Y-88359580D01*
X102638094Y-88359580D02*
X102590475Y-88407200D01*
X102590475Y-88407200D02*
X102495237Y-88454819D01*
X102495237Y-88454819D02*
X102304761Y-88454819D01*
X102304761Y-88454819D02*
X102209523Y-88407200D01*
X102209523Y-88407200D02*
X102161904Y-88359580D01*
X102161904Y-88359580D02*
X102114285Y-88264342D01*
X102114285Y-88264342D02*
X102114285Y-88073866D01*
X102114285Y-88073866D02*
X102161904Y-87978628D01*
X102161904Y-87978628D02*
X102209523Y-87931009D01*
X102209523Y-87931009D02*
X102304761Y-87883390D01*
X103066666Y-85914819D02*
X103399999Y-85438628D01*
X103638094Y-85914819D02*
X103638094Y-84914819D01*
X103638094Y-84914819D02*
X103257142Y-84914819D01*
X103257142Y-84914819D02*
X103161904Y-84962438D01*
X103161904Y-84962438D02*
X103114285Y-85010057D01*
X103114285Y-85010057D02*
X103066666Y-85105295D01*
X103066666Y-85105295D02*
X103066666Y-85248152D01*
X103066666Y-85248152D02*
X103114285Y-85343390D01*
X103114285Y-85343390D02*
X103161904Y-85391009D01*
X103161904Y-85391009D02*
X103257142Y-85438628D01*
X103257142Y-85438628D02*
X103638094Y-85438628D01*
X102733332Y-84914819D02*
X102066666Y-84914819D01*
X102066666Y-84914819D02*
X102495237Y-85914819D01*
X103066666Y-83374819D02*
X103399999Y-82898628D01*
X103638094Y-83374819D02*
X103638094Y-82374819D01*
X103638094Y-82374819D02*
X103257142Y-82374819D01*
X103257142Y-82374819D02*
X103161904Y-82422438D01*
X103161904Y-82422438D02*
X103114285Y-82470057D01*
X103114285Y-82470057D02*
X103066666Y-82565295D01*
X103066666Y-82565295D02*
X103066666Y-82708152D01*
X103066666Y-82708152D02*
X103114285Y-82803390D01*
X103114285Y-82803390D02*
X103161904Y-82851009D01*
X103161904Y-82851009D02*
X103257142Y-82898628D01*
X103257142Y-82898628D02*
X103638094Y-82898628D01*
X102209523Y-82374819D02*
X102399999Y-82374819D01*
X102399999Y-82374819D02*
X102495237Y-82422438D01*
X102495237Y-82422438D02*
X102542856Y-82470057D01*
X102542856Y-82470057D02*
X102638094Y-82612914D01*
X102638094Y-82612914D02*
X102685713Y-82803390D01*
X102685713Y-82803390D02*
X102685713Y-83184342D01*
X102685713Y-83184342D02*
X102638094Y-83279580D01*
X102638094Y-83279580D02*
X102590475Y-83327200D01*
X102590475Y-83327200D02*
X102495237Y-83374819D01*
X102495237Y-83374819D02*
X102304761Y-83374819D01*
X102304761Y-83374819D02*
X102209523Y-83327200D01*
X102209523Y-83327200D02*
X102161904Y-83279580D01*
X102161904Y-83279580D02*
X102114285Y-83184342D01*
X102114285Y-83184342D02*
X102114285Y-82946247D01*
X102114285Y-82946247D02*
X102161904Y-82851009D01*
X102161904Y-82851009D02*
X102209523Y-82803390D01*
X102209523Y-82803390D02*
X102304761Y-82755771D01*
X102304761Y-82755771D02*
X102495237Y-82755771D01*
X102495237Y-82755771D02*
X102590475Y-82803390D01*
X102590475Y-82803390D02*
X102638094Y-82851009D01*
X102638094Y-82851009D02*
X102685713Y-82946247D01*
X103066666Y-80754819D02*
X103399999Y-80278628D01*
X103638094Y-80754819D02*
X103638094Y-79754819D01*
X103638094Y-79754819D02*
X103257142Y-79754819D01*
X103257142Y-79754819D02*
X103161904Y-79802438D01*
X103161904Y-79802438D02*
X103114285Y-79850057D01*
X103114285Y-79850057D02*
X103066666Y-79945295D01*
X103066666Y-79945295D02*
X103066666Y-80088152D01*
X103066666Y-80088152D02*
X103114285Y-80183390D01*
X103114285Y-80183390D02*
X103161904Y-80231009D01*
X103161904Y-80231009D02*
X103257142Y-80278628D01*
X103257142Y-80278628D02*
X103638094Y-80278628D01*
X102161904Y-79754819D02*
X102638094Y-79754819D01*
X102638094Y-79754819D02*
X102685713Y-80231009D01*
X102685713Y-80231009D02*
X102638094Y-80183390D01*
X102638094Y-80183390D02*
X102542856Y-80135771D01*
X102542856Y-80135771D02*
X102304761Y-80135771D01*
X102304761Y-80135771D02*
X102209523Y-80183390D01*
X102209523Y-80183390D02*
X102161904Y-80231009D01*
X102161904Y-80231009D02*
X102114285Y-80326247D01*
X102114285Y-80326247D02*
X102114285Y-80564342D01*
X102114285Y-80564342D02*
X102161904Y-80659580D01*
X102161904Y-80659580D02*
X102209523Y-80707200D01*
X102209523Y-80707200D02*
X102304761Y-80754819D01*
X102304761Y-80754819D02*
X102542856Y-80754819D01*
X102542856Y-80754819D02*
X102638094Y-80707200D01*
X102638094Y-80707200D02*
X102685713Y-80659580D01*
X103066666Y-78214819D02*
X103399999Y-77738628D01*
X103638094Y-78214819D02*
X103638094Y-77214819D01*
X103638094Y-77214819D02*
X103257142Y-77214819D01*
X103257142Y-77214819D02*
X103161904Y-77262438D01*
X103161904Y-77262438D02*
X103114285Y-77310057D01*
X103114285Y-77310057D02*
X103066666Y-77405295D01*
X103066666Y-77405295D02*
X103066666Y-77548152D01*
X103066666Y-77548152D02*
X103114285Y-77643390D01*
X103114285Y-77643390D02*
X103161904Y-77691009D01*
X103161904Y-77691009D02*
X103257142Y-77738628D01*
X103257142Y-77738628D02*
X103638094Y-77738628D01*
X102209523Y-77548152D02*
X102209523Y-78214819D01*
X102447618Y-77167200D02*
X102685713Y-77881485D01*
X102685713Y-77881485D02*
X102066666Y-77881485D01*
X103066666Y-75674819D02*
X103399999Y-75198628D01*
X103638094Y-75674819D02*
X103638094Y-74674819D01*
X103638094Y-74674819D02*
X103257142Y-74674819D01*
X103257142Y-74674819D02*
X103161904Y-74722438D01*
X103161904Y-74722438D02*
X103114285Y-74770057D01*
X103114285Y-74770057D02*
X103066666Y-74865295D01*
X103066666Y-74865295D02*
X103066666Y-75008152D01*
X103066666Y-75008152D02*
X103114285Y-75103390D01*
X103114285Y-75103390D02*
X103161904Y-75151009D01*
X103161904Y-75151009D02*
X103257142Y-75198628D01*
X103257142Y-75198628D02*
X103638094Y-75198628D01*
X102733332Y-74674819D02*
X102114285Y-74674819D01*
X102114285Y-74674819D02*
X102447618Y-75055771D01*
X102447618Y-75055771D02*
X102304761Y-75055771D01*
X102304761Y-75055771D02*
X102209523Y-75103390D01*
X102209523Y-75103390D02*
X102161904Y-75151009D01*
X102161904Y-75151009D02*
X102114285Y-75246247D01*
X102114285Y-75246247D02*
X102114285Y-75484342D01*
X102114285Y-75484342D02*
X102161904Y-75579580D01*
X102161904Y-75579580D02*
X102209523Y-75627200D01*
X102209523Y-75627200D02*
X102304761Y-75674819D01*
X102304761Y-75674819D02*
X102590475Y-75674819D01*
X102590475Y-75674819D02*
X102685713Y-75627200D01*
X102685713Y-75627200D02*
X102733332Y-75579580D01*
X103016666Y-72954819D02*
X103349999Y-72478628D01*
X103588094Y-72954819D02*
X103588094Y-71954819D01*
X103588094Y-71954819D02*
X103207142Y-71954819D01*
X103207142Y-71954819D02*
X103111904Y-72002438D01*
X103111904Y-72002438D02*
X103064285Y-72050057D01*
X103064285Y-72050057D02*
X103016666Y-72145295D01*
X103016666Y-72145295D02*
X103016666Y-72288152D01*
X103016666Y-72288152D02*
X103064285Y-72383390D01*
X103064285Y-72383390D02*
X103111904Y-72431009D01*
X103111904Y-72431009D02*
X103207142Y-72478628D01*
X103207142Y-72478628D02*
X103588094Y-72478628D01*
X102635713Y-72050057D02*
X102588094Y-72002438D01*
X102588094Y-72002438D02*
X102492856Y-71954819D01*
X102492856Y-71954819D02*
X102254761Y-71954819D01*
X102254761Y-71954819D02*
X102159523Y-72002438D01*
X102159523Y-72002438D02*
X102111904Y-72050057D01*
X102111904Y-72050057D02*
X102064285Y-72145295D01*
X102064285Y-72145295D02*
X102064285Y-72240533D01*
X102064285Y-72240533D02*
X102111904Y-72383390D01*
X102111904Y-72383390D02*
X102683332Y-72954819D01*
X102683332Y-72954819D02*
X102064285Y-72954819D01*
X102966666Y-70454819D02*
X103299999Y-69978628D01*
X103538094Y-70454819D02*
X103538094Y-69454819D01*
X103538094Y-69454819D02*
X103157142Y-69454819D01*
X103157142Y-69454819D02*
X103061904Y-69502438D01*
X103061904Y-69502438D02*
X103014285Y-69550057D01*
X103014285Y-69550057D02*
X102966666Y-69645295D01*
X102966666Y-69645295D02*
X102966666Y-69788152D01*
X102966666Y-69788152D02*
X103014285Y-69883390D01*
X103014285Y-69883390D02*
X103061904Y-69931009D01*
X103061904Y-69931009D02*
X103157142Y-69978628D01*
X103157142Y-69978628D02*
X103538094Y-69978628D01*
X102014285Y-70454819D02*
X102585713Y-70454819D01*
X102299999Y-70454819D02*
X102299999Y-69454819D01*
X102299999Y-69454819D02*
X102395237Y-69597676D01*
X102395237Y-69597676D02*
X102490475Y-69692914D01*
X102490475Y-69692914D02*
X102585713Y-69740533D01*
X110921904Y-67226438D02*
X111017142Y-67178819D01*
X111017142Y-67178819D02*
X111159999Y-67178819D01*
X111159999Y-67178819D02*
X111302856Y-67226438D01*
X111302856Y-67226438D02*
X111398094Y-67321676D01*
X111398094Y-67321676D02*
X111445713Y-67416914D01*
X111445713Y-67416914D02*
X111493332Y-67607390D01*
X111493332Y-67607390D02*
X111493332Y-67750247D01*
X111493332Y-67750247D02*
X111445713Y-67940723D01*
X111445713Y-67940723D02*
X111398094Y-68035961D01*
X111398094Y-68035961D02*
X111302856Y-68131200D01*
X111302856Y-68131200D02*
X111159999Y-68178819D01*
X111159999Y-68178819D02*
X111064761Y-68178819D01*
X111064761Y-68178819D02*
X110921904Y-68131200D01*
X110921904Y-68131200D02*
X110874285Y-68083580D01*
X110874285Y-68083580D02*
X110874285Y-67750247D01*
X110874285Y-67750247D02*
X111064761Y-67750247D01*
X110445713Y-68178819D02*
X110445713Y-67178819D01*
X110445713Y-67178819D02*
X109874285Y-68178819D01*
X109874285Y-68178819D02*
X109874285Y-67178819D01*
X109398094Y-68178819D02*
X109398094Y-67178819D01*
X109398094Y-67178819D02*
X109159999Y-67178819D01*
X109159999Y-67178819D02*
X109017142Y-67226438D01*
X109017142Y-67226438D02*
X108921904Y-67321676D01*
X108921904Y-67321676D02*
X108874285Y-67416914D01*
X108874285Y-67416914D02*
X108826666Y-67607390D01*
X108826666Y-67607390D02*
X108826666Y-67750247D01*
X108826666Y-67750247D02*
X108874285Y-67940723D01*
X108874285Y-67940723D02*
X108921904Y-68035961D01*
X108921904Y-68035961D02*
X109017142Y-68131200D01*
X109017142Y-68131200D02*
X109159999Y-68178819D01*
X109159999Y-68178819D02*
X109398094Y-68178819D01*
X101023808Y-68131200D02*
X100880951Y-68178819D01*
X100880951Y-68178819D02*
X100642856Y-68178819D01*
X100642856Y-68178819D02*
X100547618Y-68131200D01*
X100547618Y-68131200D02*
X100499999Y-68083580D01*
X100499999Y-68083580D02*
X100452380Y-67988342D01*
X100452380Y-67988342D02*
X100452380Y-67893104D01*
X100452380Y-67893104D02*
X100499999Y-67797866D01*
X100499999Y-67797866D02*
X100547618Y-67750247D01*
X100547618Y-67750247D02*
X100642856Y-67702628D01*
X100642856Y-67702628D02*
X100833332Y-67655009D01*
X100833332Y-67655009D02*
X100928570Y-67607390D01*
X100928570Y-67607390D02*
X100976189Y-67559771D01*
X100976189Y-67559771D02*
X101023808Y-67464533D01*
X101023808Y-67464533D02*
X101023808Y-67369295D01*
X101023808Y-67369295D02*
X100976189Y-67274057D01*
X100976189Y-67274057D02*
X100928570Y-67226438D01*
X100928570Y-67226438D02*
X100833332Y-67178819D01*
X100833332Y-67178819D02*
X100595237Y-67178819D01*
X100595237Y-67178819D02*
X100452380Y-67226438D01*
X100023808Y-68178819D02*
X100023808Y-67178819D01*
X99023809Y-67226438D02*
X99119047Y-67178819D01*
X99119047Y-67178819D02*
X99261904Y-67178819D01*
X99261904Y-67178819D02*
X99404761Y-67226438D01*
X99404761Y-67226438D02*
X99499999Y-67321676D01*
X99499999Y-67321676D02*
X99547618Y-67416914D01*
X99547618Y-67416914D02*
X99595237Y-67607390D01*
X99595237Y-67607390D02*
X99595237Y-67750247D01*
X99595237Y-67750247D02*
X99547618Y-67940723D01*
X99547618Y-67940723D02*
X99499999Y-68035961D01*
X99499999Y-68035961D02*
X99404761Y-68131200D01*
X99404761Y-68131200D02*
X99261904Y-68178819D01*
X99261904Y-68178819D02*
X99166666Y-68178819D01*
X99166666Y-68178819D02*
X99023809Y-68131200D01*
X99023809Y-68131200D02*
X98976190Y-68083580D01*
X98976190Y-68083580D02*
X98976190Y-67750247D01*
X98976190Y-67750247D02*
X99166666Y-67750247D01*
D11*
X105685436Y-144395000D02*
X106139564Y-144395000D01*
X105685436Y-142925000D02*
X106139564Y-142925000D01*
X105685436Y-141855000D02*
X106139564Y-141855000D01*
X105685436Y-140385000D02*
X106139564Y-140385000D01*
X105685436Y-139315000D02*
X106139564Y-139315000D01*
X105685436Y-137845000D02*
X106139564Y-137845000D01*
X105685436Y-135305000D02*
X106139564Y-135305000D01*
X105685436Y-136775000D02*
X106139564Y-136775000D01*
X105685436Y-134235000D02*
X106139564Y-134235000D01*
X105685436Y-132765000D02*
X106139564Y-132765000D01*
X105685436Y-131695000D02*
X106139564Y-131695000D01*
X105685436Y-130225000D02*
X106139564Y-130225000D01*
X105685436Y-129155000D02*
X106139564Y-129155000D01*
X105685436Y-127685000D02*
X106139564Y-127685000D01*
X105685436Y-126615000D02*
X106139564Y-126615000D01*
X105685436Y-125145000D02*
X106139564Y-125145000D01*
X105685436Y-124075000D02*
X106139564Y-124075000D01*
X105685436Y-122605000D02*
X106139564Y-122605000D01*
X105685436Y-121535000D02*
X106139564Y-121535000D01*
X105685436Y-120065000D02*
X106139564Y-120065000D01*
X105685436Y-118995000D02*
X106139564Y-118995000D01*
X105685436Y-117525000D02*
X106139564Y-117525000D01*
X105685436Y-116455000D02*
X106139564Y-116455000D01*
X105685436Y-114985000D02*
X106139564Y-114985000D01*
X105685436Y-113915000D02*
X106139564Y-113915000D01*
X105685436Y-112445000D02*
X106139564Y-112445000D01*
X105685436Y-111375000D02*
X106139564Y-111375000D01*
X105685436Y-109905000D02*
X106139564Y-109905000D01*
X105685436Y-108835000D02*
X106139564Y-108835000D01*
X105685436Y-107365000D02*
X106139564Y-107365000D01*
X105685436Y-106295000D02*
X106139564Y-106295000D01*
X105685436Y-104825000D02*
X106139564Y-104825000D01*
X105685436Y-103755000D02*
X106139564Y-103755000D01*
X105685436Y-102285000D02*
X106139564Y-102285000D01*
X105685436Y-101215000D02*
X106139564Y-101215000D01*
X105685436Y-99745000D02*
X106139564Y-99745000D01*
X105685436Y-98675000D02*
X106139564Y-98675000D01*
X105685436Y-97205000D02*
X106139564Y-97205000D01*
X105685436Y-96135000D02*
X106139564Y-96135000D01*
X105685436Y-94665000D02*
X106139564Y-94665000D01*
X105685436Y-93595000D02*
X106139564Y-93595000D01*
X105685436Y-92125000D02*
X106139564Y-92125000D01*
X105685436Y-91055000D02*
X106139564Y-91055000D01*
X105685436Y-89585000D02*
X106139564Y-89585000D01*
X105685436Y-88515000D02*
X106139564Y-88515000D01*
X105685436Y-87045000D02*
X106139564Y-87045000D01*
X105685436Y-85975000D02*
X106139564Y-85975000D01*
X105685436Y-84505000D02*
X106139564Y-84505000D01*
X105685436Y-83435000D02*
X106139564Y-83435000D01*
X105685436Y-81965000D02*
X106139564Y-81965000D01*
X105685436Y-80895000D02*
X106139564Y-80895000D01*
X105685436Y-79425000D02*
X106139564Y-79425000D01*
X105685436Y-78355000D02*
X106139564Y-78355000D01*
X105685436Y-76885000D02*
X106139564Y-76885000D01*
X105685436Y-75815000D02*
X106139564Y-75815000D01*
X105685436Y-74345000D02*
X106139564Y-74345000D01*
X105685436Y-73275000D02*
X106139564Y-73275000D01*
X105685436Y-71805000D02*
X106139564Y-71805000D01*
X105685436Y-69265000D02*
X106139564Y-69265000D01*
X105685436Y-70735000D02*
X106139564Y-70735000D01*
X111490000Y-71270000D02*
X111490000Y-144990000D01*
X111490000Y-71270000D02*
X108830000Y-71270000D01*
X111490000Y-144990000D02*
X108830000Y-144990000D01*
X111490000Y-68670000D02*
X110160000Y-68670000D01*
X111490000Y-70000000D02*
X111490000Y-68670000D01*
X108830000Y-71270000D02*
X108830000Y-144990000D01*
X101330000Y-71270000D02*
X101330000Y-144990000D01*
X101330000Y-71270000D02*
X98670000Y-71270000D01*
X101330000Y-144990000D02*
X98670000Y-144990000D01*
X101330000Y-68670000D02*
X100000000Y-68670000D01*
X101330000Y-70000000D02*
X101330000Y-68670000D01*
X98670000Y-71270000D02*
X98670000Y-144990000D01*
%LPC*%
D12*
X105000000Y-143660000D03*
X106825000Y-143660000D03*
X105000000Y-141120000D03*
X106825000Y-141120000D03*
X105000000Y-138580000D03*
X106825000Y-138580000D03*
X106825000Y-136040000D03*
X105000000Y-136040000D03*
X105000000Y-133500000D03*
X106825000Y-133500000D03*
X105000000Y-130960000D03*
X106825000Y-130960000D03*
X105000000Y-128420000D03*
X106825000Y-128420000D03*
X105000000Y-125880000D03*
X106825000Y-125880000D03*
X105000000Y-123340000D03*
X106825000Y-123340000D03*
X105000000Y-120800000D03*
X106825000Y-120800000D03*
X105000000Y-118260000D03*
X106825000Y-118260000D03*
X105000000Y-115720000D03*
X106825000Y-115720000D03*
X105000000Y-113180000D03*
X106825000Y-113180000D03*
X105000000Y-110640000D03*
X106825000Y-110640000D03*
X105000000Y-108100000D03*
X106825000Y-108100000D03*
X105000000Y-105560000D03*
X106825000Y-105560000D03*
X105000000Y-103020000D03*
X106825000Y-103020000D03*
X105000000Y-100480000D03*
X106825000Y-100480000D03*
X105000000Y-97940000D03*
X106825000Y-97940000D03*
X105000000Y-95400000D03*
X106825000Y-95400000D03*
X105000000Y-92860000D03*
X106825000Y-92860000D03*
X105000000Y-90320000D03*
X106825000Y-90320000D03*
X105000000Y-87780000D03*
X106825000Y-87780000D03*
X105000000Y-85240000D03*
X106825000Y-85240000D03*
X105000000Y-82700000D03*
X106825000Y-82700000D03*
X105000000Y-80160000D03*
X106825000Y-80160000D03*
X105000000Y-77620000D03*
X106825000Y-77620000D03*
X105000000Y-75080000D03*
X106825000Y-75080000D03*
X105000000Y-72540000D03*
X106825000Y-72540000D03*
X106825000Y-70000000D03*
X105000000Y-70000000D03*
D13*
X110160000Y-70000000D03*
D14*
X110160000Y-72540000D03*
X110160000Y-75080000D03*
X110160000Y-77620000D03*
X110160000Y-80160000D03*
X110160000Y-82700000D03*
X110160000Y-85240000D03*
X110160000Y-87780000D03*
X110160000Y-90320000D03*
X110160000Y-92860000D03*
X110160000Y-95400000D03*
X110160000Y-97940000D03*
X110160000Y-100480000D03*
X110160000Y-103020000D03*
X110160000Y-105560000D03*
X110160000Y-108100000D03*
X110160000Y-110640000D03*
X110160000Y-113180000D03*
X110160000Y-115720000D03*
X110160000Y-118260000D03*
X110160000Y-120800000D03*
X110160000Y-123340000D03*
X110160000Y-125880000D03*
X110160000Y-128420000D03*
X110160000Y-130960000D03*
X110160000Y-133500000D03*
X110160000Y-136040000D03*
X110160000Y-138580000D03*
X110160000Y-141120000D03*
X110160000Y-143660000D03*
D13*
X100000000Y-70000000D03*
D14*
X100000000Y-72540000D03*
X100000000Y-75080000D03*
X100000000Y-77620000D03*
X100000000Y-80160000D03*
X100000000Y-82700000D03*
X100000000Y-85240000D03*
X100000000Y-87780000D03*
X100000000Y-90320000D03*
X100000000Y-92860000D03*
X100000000Y-95400000D03*
X100000000Y-97940000D03*
X100000000Y-100480000D03*
X100000000Y-103020000D03*
X100000000Y-105560000D03*
X100000000Y-108100000D03*
X100000000Y-110640000D03*
X100000000Y-113180000D03*
X100000000Y-115720000D03*
X100000000Y-118260000D03*
X100000000Y-120800000D03*
X100000000Y-123340000D03*
X100000000Y-125880000D03*
X100000000Y-128420000D03*
X100000000Y-130960000D03*
X100000000Y-133500000D03*
X100000000Y-136040000D03*
X100000000Y-138580000D03*
X100000000Y-141120000D03*
X100000000Y-143660000D03*
%LPD*%
M02*
