G04 #@! TF.GenerationSoftware,KiCad,Pcbnew,7.0.6*
G04 #@! TF.CreationDate,2024-04-20T21:55:13+01:00*
G04 #@! TF.ProjectId,BreadboardIndicator,42726561-6462-46f6-9172-64496e646963,rev?*
G04 #@! TF.SameCoordinates,Original*
G04 #@! TF.FileFunction,Soldermask,Top*
G04 #@! TF.FilePolarity,Negative*
%FSLAX46Y46*%
G04 Gerber Fmt 4.6, Leading zero omitted, Abs format (unit mm)*
G04 Created by KiCad (PCBNEW 7.0.6) date 2024-04-20 21:55:13*
%MOMM*%
%LPD*%
G01*
G04 APERTURE LIST*
G04 Aperture macros list*
%AMRoundRect*
0 Rectangle with rounded corners*
0 $1 Rounding radius*
0 $2 $3 $4 $5 $6 $7 $8 $9 X,Y pos of 4 corners*
0 Add a 4 corners polygon primitive as box body*
4,1,4,$2,$3,$4,$5,$6,$7,$8,$9,$2,$3,0*
0 Add four circle primitives for the rounded corners*
1,1,$1+$1,$2,$3*
1,1,$1+$1,$4,$5*
1,1,$1+$1,$6,$7*
1,1,$1+$1,$8,$9*
0 Add four rect primitives between the rounded corners*
20,1,$1+$1,$2,$3,$4,$5,0*
20,1,$1+$1,$4,$5,$6,$7,0*
20,1,$1+$1,$6,$7,$8,$9,0*
20,1,$1+$1,$8,$9,$2,$3,0*%
G04 Aperture macros list end*
%ADD10RoundRect,0.243750X0.243750X0.456250X-0.243750X0.456250X-0.243750X-0.456250X0.243750X-0.456250X0*%
%ADD11R,1.700000X1.700000*%
%ADD12O,1.700000X1.700000*%
G04 APERTURE END LIST*
D10*
X105000000Y-143660000D03*
X103125000Y-143660000D03*
X105000000Y-141120000D03*
X103125000Y-141120000D03*
X105000000Y-138580000D03*
X103125000Y-138580000D03*
X105000000Y-136040000D03*
X103125000Y-136040000D03*
X105000000Y-133500000D03*
X103125000Y-133500000D03*
X105000000Y-130960000D03*
X103125000Y-130960000D03*
X105000000Y-128420000D03*
X103125000Y-128420000D03*
X105000000Y-125880000D03*
X103125000Y-125880000D03*
X105000000Y-123340000D03*
X103125000Y-123340000D03*
X105000000Y-120800000D03*
X103125000Y-120800000D03*
X105000000Y-118260000D03*
X103125000Y-118260000D03*
X105000000Y-115720000D03*
X103125000Y-115720000D03*
X105000000Y-113180000D03*
X103125000Y-113180000D03*
X105000000Y-110640000D03*
X103125000Y-110640000D03*
X105000000Y-108100000D03*
X103125000Y-108100000D03*
X105000000Y-105560000D03*
X103125000Y-105560000D03*
X105000000Y-103020000D03*
X103125000Y-103020000D03*
X105000000Y-100480000D03*
X103125000Y-100480000D03*
X105000000Y-97940000D03*
X103125000Y-97940000D03*
X105000000Y-95400000D03*
X103125000Y-95400000D03*
X105000000Y-92860000D03*
X103125000Y-92860000D03*
X105000000Y-90320000D03*
X103125000Y-90320000D03*
X105000000Y-87780000D03*
X103125000Y-87780000D03*
X105000000Y-85240000D03*
X103125000Y-85240000D03*
X105000000Y-82700000D03*
X103125000Y-82700000D03*
X105000000Y-80160000D03*
X103125000Y-80160000D03*
X105000000Y-77620000D03*
X103125000Y-77620000D03*
X105000000Y-75080000D03*
X103125000Y-75080000D03*
X103125000Y-72540000D03*
X105000000Y-72540000D03*
X103125000Y-70000000D03*
X105000000Y-70000000D03*
D11*
X110160000Y-70000000D03*
D12*
X110160000Y-72540000D03*
X110160000Y-75080000D03*
X110160000Y-77620000D03*
X110160000Y-80160000D03*
X110160000Y-82700000D03*
X110160000Y-85240000D03*
X110160000Y-87780000D03*
X110160000Y-90320000D03*
X110160000Y-92860000D03*
X110160000Y-95400000D03*
X110160000Y-97940000D03*
X110160000Y-100480000D03*
X110160000Y-103020000D03*
X110160000Y-105560000D03*
X110160000Y-108100000D03*
X110160000Y-110640000D03*
X110160000Y-113180000D03*
X110160000Y-115720000D03*
X110160000Y-118260000D03*
X110160000Y-120800000D03*
X110160000Y-123340000D03*
X110160000Y-125880000D03*
X110160000Y-128420000D03*
X110160000Y-130960000D03*
X110160000Y-133500000D03*
X110160000Y-136040000D03*
X110160000Y-138580000D03*
X110160000Y-141120000D03*
X110160000Y-143660000D03*
D11*
X100000000Y-70000000D03*
D12*
X100000000Y-72540000D03*
X100000000Y-75080000D03*
X100000000Y-77620000D03*
X100000000Y-80160000D03*
X100000000Y-82700000D03*
X100000000Y-85240000D03*
X100000000Y-87780000D03*
X100000000Y-90320000D03*
X100000000Y-92860000D03*
X100000000Y-95400000D03*
X100000000Y-97940000D03*
X100000000Y-100480000D03*
X100000000Y-103020000D03*
X100000000Y-105560000D03*
X100000000Y-108100000D03*
X100000000Y-110640000D03*
X100000000Y-113180000D03*
X100000000Y-115720000D03*
X100000000Y-118260000D03*
X100000000Y-120800000D03*
X100000000Y-123340000D03*
X100000000Y-125880000D03*
X100000000Y-128420000D03*
X100000000Y-130960000D03*
X100000000Y-133500000D03*
X100000000Y-136040000D03*
X100000000Y-138580000D03*
X100000000Y-141120000D03*
X100000000Y-143660000D03*
M02*
